solid OpenSCAD_Model
  facet normal 0 0 -1
    outer loop
      vertex 10 3 0
      vertex 6.59961 3 0
      vertex 10 12 0
    endloop
  endfacet
  facet normal 0 0 -1
    outer loop
      vertex 10 12 0
      vertex 0 12 0
      vertex 5 18 0
    endloop
  endfacet
  facet normal -0 0 -1
    outer loop
      vertex 10 12 0
      vertex 6.59961 3 0
      vertex 0 12 0
    endloop
  endfacet
  facet normal -0 -0 -1
    outer loop
      vertex 6.59961 3 0
      vertex 6.59961 0 0
      vertex 3.40039 3 0
    endloop
  endfacet
  facet normal 0 0 -1
    outer loop
      vertex 3.40039 3 0
      vertex 6.59961 0 0
      vertex 3.40039 0 0
    endloop
  endfacet
  facet normal 0 0 -1
    outer loop
      vertex 6.59961 3 0
      vertex 3.40039 3 0
      vertex 0 12 0
    endloop
  endfacet
  facet normal 0 0 -1
    outer loop
      vertex 3.40039 3 0
      vertex 0 3 0
      vertex 0 12 0
    endloop
  endfacet
  facet normal 0 0 1
    outer loop
      vertex 10 12 2.5
      vertex 6.59961 3 2.5
      vertex 10 3 2.5
    endloop
  endfacet
  facet normal 0 0 1
    outer loop
      vertex 5 18 2.5
      vertex 0 12 2.5
      vertex 10 12 2.5
    endloop
  endfacet
  facet normal -0 0 1
    outer loop
      vertex 0 12 2.5
      vertex 6.59961 3 2.5
      vertex 10 12 2.5
    endloop
  endfacet
  facet normal -0 0 1
    outer loop
      vertex 3.40039 3 2.5
      vertex 6.59961 0 2.5
      vertex 6.59961 3 2.5
    endloop
  endfacet
  facet normal 0 0 1
    outer loop
      vertex 3.40039 0 2.5
      vertex 6.59961 0 2.5
      vertex 3.40039 3 2.5
    endloop
  endfacet
  facet normal 0 0 1
    outer loop
      vertex 0 12 2.5
      vertex 3.40039 3 2.5
      vertex 6.59961 3 2.5
    endloop
  endfacet
  facet normal 0 0 1
    outer loop
      vertex 0 12 2.5
      vertex 0 3 2.5
      vertex 3.40039 3 2.5
    endloop
  endfacet
  facet normal 0 -1 0
    outer loop
      vertex 10 3 0
      vertex 6.59961 3 2.5
      vertex 6.59961 3 0
    endloop
  endfacet
  facet normal 0 -1 0
    outer loop
      vertex 10 3 0
      vertex 10 3 2.5
      vertex 6.59961 3 2.5
    endloop
  endfacet
  facet normal 1 0 0
    outer loop
      vertex 10 12 0
      vertex 10 3 2.5
      vertex 10 3 0
    endloop
  endfacet
  facet normal 1 0 -0
    outer loop
      vertex 10 12 0
      vertex 10 12 2.5
      vertex 10 3 2.5
    endloop
  endfacet
  facet normal 0.768221 0.640184 0
    outer loop
      vertex 5 18 0
      vertex 10 12 2.5
      vertex 10 12 0
    endloop
  endfacet
  facet normal 0.768221 0.640184 -0
    outer loop
      vertex 5 18 0
      vertex 5 18 2.5
      vertex 10 12 2.5
    endloop
  endfacet
  facet normal -0.768221 0.640184 0
    outer loop
      vertex 0 12 0
      vertex 5 18 2.5
      vertex 5 18 0
    endloop
  endfacet
  facet normal -0.768221 0.640184 0
    outer loop
      vertex 0 12 0
      vertex 0 12 2.5
      vertex 5 18 2.5
    endloop
  endfacet
  facet normal -1 0 0
    outer loop
      vertex 0 3 0
      vertex 0 12 2.5
      vertex 0 12 0
    endloop
  endfacet
  facet normal -1 0 0
    outer loop
      vertex 0 3 0
      vertex 0 3 2.5
      vertex 0 12 2.5
    endloop
  endfacet
  facet normal 0 -1 0
    outer loop
      vertex 3.40039 3 0
      vertex 0 3 2.5
      vertex 0 3 0
    endloop
  endfacet
  facet normal 0 -1 0
    outer loop
      vertex 3.40039 3 0
      vertex 3.40039 3 2.5
      vertex 0 3 2.5
    endloop
  endfacet
  facet normal -1 0 0
    outer loop
      vertex 3.40039 0 0
      vertex 3.40039 3 2.5
      vertex 3.40039 3 0
    endloop
  endfacet
  facet normal -1 0 0
    outer loop
      vertex 3.40039 0 0
      vertex 3.40039 0 2.5
      vertex 3.40039 3 2.5
    endloop
  endfacet
  facet normal 0 -1 0
    outer loop
      vertex 6.59961 0 0
      vertex 3.40039 0 2.5
      vertex 3.40039 0 0
    endloop
  endfacet
  facet normal 0 -1 0
    outer loop
      vertex 6.59961 0 0
      vertex 6.59961 0 2.5
      vertex 3.40039 0 2.5
    endloop
  endfacet
  facet normal 1 0 0
    outer loop
      vertex 6.59961 3 0
      vertex 6.59961 0 2.5
      vertex 6.59961 0 0
    endloop
  endfacet
  facet normal 1 0 -0
    outer loop
      vertex 6.59961 3 0
      vertex 6.59961 3 2.5
      vertex 6.59961 0 2.5
    endloop
  endfacet
endsolid OpenSCAD_Model
