<?xml version="1.0" encoding="UTF-8" standalone="no"?>
<!-- Created with Inkscape (http://www.inkscape.org/) -->

<svg
   xmlns:dc="http://purl.org/dc/elements/1.1/"
   xmlns:cc="http://creativecommons.org/ns#"
   xmlns:rdf="http://www.w3.org/1999/02/22-rdf-syntax-ns#"
   xmlns:svg="http://www.w3.org/2000/svg"
   xmlns="http://www.w3.org/2000/svg"
   xmlns:sodipodi="http://sodipodi.sourceforge.net/DTD/sodipodi-0.dtd"
   xmlns:inkscape="http://www.inkscape.org/namespaces/inkscape"
   width="210mm"
   height="297mm"
   viewBox="0 0 210 297"
   version="1.1"
   id="svg8"
   inkscape:version="0.92.2 5c3e80d, 2017-08-06"
   sodipodi:docname="plateau_cpy2.svg">
  <defs
     id="defs2" />
  <sodipodi:namedview
     id="base"
     pagecolor="#ffffff"
     bordercolor="#666666"
     borderopacity="1.0"
     inkscape:pageopacity="0.0"
     inkscape:pageshadow="2"
     inkscape:zoom="4.4912292"
     inkscape:cx="639.29375"
     inkscape:cy="715.05666"
     inkscape:document-units="mm"
     inkscape:current-layer="layer1"
     showgrid="false"
     inkscape:window-width="1920"
     inkscape:window-height="1016"
     inkscape:window-x="0"
     inkscape:window-y="27"
     inkscape:window-maximized="1" />
  <metadata
     id="metadata5">
    <rdf:RDF>
      <cc:Work
         rdf:about="">
        <dc:format>image/svg+xml</dc:format>
        <dc:type
           rdf:resource="http://purl.org/dc/dcmitype/StillImage" />
        <dc:title />
      </cc:Work>
    </rdf:RDF>
  </metadata>
  <g
     inkscape:label="Calque 1"
     inkscape:groupmode="layer"
     id="layer1">
    <g
       id="g870"
       transform="matrix(0.26458333,0,0,0.26458333,51.174626,188.90286)">
      <path
         id="path583"
         style="fill:none;stroke:#ff0000;stroke-width:1"
         d="M 174.56878,87.284391 130.92659,162.87489 H 43.642196 L 0,87.284391 43.642196,11.693891 h 87.284394 z"
         inkscape:connector-curvature="0" />
      <path
         id="path585"
         d="m 87.285156,119.78906 c -20.294183,0 -40.589438,5.375 -59.208984,16.125 l 2.037109,3.52735 c 22.63541,-13.06856 49.718434,-17.5922 75.437499,-13.58203 0.47119,-1.46174 0.96525,-2.91413 1.49219,-4.35157 -6.54788,-1.13892 -13.152186,-1.71875 -19.757814,-1.71875 z m 24.271484,2.60156 c -0.54424,1.40769 -1.05947,2.82645 -1.54883,4.25391 12.06619,2.36221 23.75386,6.62303 34.44727,12.79688 l 2.03711,-3.52735 c -11.16286,-6.44488 -22.92973,-10.94241 -34.93555,-13.52344 z"
         style="fill:none;stroke:#008000;stroke-width:1"
         inkscape:connector-curvature="0" />
      <path
         id="path587"
         style="fill:none;stroke:#008000;stroke-width:1"
         d="m 13.529081,110.71745 c 34.641016,-20.000004 34.641016,-26.866114 0,-46.866114 l 2.036635,-3.527557 c 37.239093,21.5 37.239093,32.421224 0,53.921221"
         inkscape:connector-curvature="0" />
      <path
         id="path589"
         d="m 70.701172,11.693359 v 29.730469 a 7.5590553,7.5590553 0 0 0 -5.47461,5.509766 C 54.495046,46.264961 42.284748,42.154153 30.113281,35.126953 l -2.037109,3.527344 c 12.789797,7.384193 25.725873,11.564629 37.208984,12.15625 a 7.5590553,7.5590553 0 0 0 5.416016,5.253906 v 64.941407 c 1.355584,-0.19722 2.71306,-0.37283 4.072266,-0.52148 V 55.964844 a 7.5590553,7.5590553 0 0 0 5.3125,-6.658203 C 94.294511,45.211346 103.86914,33.115898 103.86914,11.693359 h -4.074218 c 0,19.259836 -8.134703,30.023052 -20.427734,33.791016 a 7.5590553,7.5590553 0 0 0 -4.59375,-3.964844 V 11.693359 Z m 4.072266,113.421871 c -1.360396,0.14402 -2.717867,0.31274 -4.072266,0.50391 V 162.875 h 4.072266 z"
         style="fill:none;stroke:#008000;stroke-width:1"
         inkscape:connector-curvature="0" />
      <path
         id="path593"
         style="fill:none;stroke:#008000;stroke-width:1"
         d="m 146.4923,38.654503 c -34.64101,20 -20.09361,52.062943 14.5474,72.062947 l -2.03663,3.52755 c -37.2391,-21.499997 -51.7865,-57.618054 -14.5474,-79.118054"
         inkscape:connector-curvature="0" />
      <path
         id="path595"
         d="m 159.00391,60.324219 c -10.62723,6.135634 -20.00594,13.623694 -27.99024,22.185547 0.72369,1.338499 1.52745,2.670126 2.41797,3.992187 7.92956,-8.933711 17.21809,-16.652106 27.60742,-22.650391 z m -30.71875,25.21875 C 110.00338,106.57703 99.794922,133.57434 99.794922,162.875 h 4.074218 c 0,-26.66449 10.02186,-52.88719 26.95898,-73.337891 -0.91473,-1.321652 -1.77549,-2.652847 -2.54296,-3.99414 z"
         style="fill:none;stroke:#008000;stroke-width:1"
         inkscape:connector-curvature="0" />
    </g>
    <g
       id="g888"
       transform="matrix(0.26458333,0,0,0.26458333,51.174626,148.90289)">
      <path
         id="path114"
         style="fill:none;stroke:#ff0000;stroke-width:1"
         d="M 174.56878,87.284391 130.92659,162.87489 H 43.642196 L 0,87.284391 43.642196,11.693891 h 87.284394 z"
         inkscape:connector-curvature="0" />
      <path
         id="path116"
         style="fill:none;stroke:#008000;stroke-width:1"
         d="m 144.45567,139.44184 c -34.64102,-20 -40.58724,-16.56695 -40.58724,23.43305 h -4.073276 c 0,-43 9.458056,-48.46061 46.697146,-26.96061"
         inkscape:connector-curvature="0" />
      <path
         id="path118"
         d="m 30.113281,35.126953 -2.037109,3.527344 c 17.081446,9.861978 27.672445,30.48226 34.029297,53.642578 1.443384,-0.420292 2.868641,-0.843196 4.328125,-1.259766 C 59.927227,67.122269 48.758519,45.891786 30.113281,35.126953 Z m 37.277344,59.611328 c -1.453379,0.409343 -2.877607,0.830659 -4.316406,1.246094 5.768706,22.826185 7.626953,47.655445 7.626953,66.890625 h 4.072266 c 0,-20.36706 -1.672988,-45.27237 -7.382813,-68.136719 z"
         style="fill:none;stroke:#008000;stroke-width:1"
         inkscape:connector-curvature="0" />
      <path
         id="path120"
         d="m 99.794922,11.693359 c 0,24.259783 -13.647664,57.417011 -32.109375,84.226563 0.485417,1.998138 0.933175,4.012044 1.359375,6.035158 C 89.229515,74.234304 103.86914,38.912172 103.86914,11.693359 Z m -35.56836,89.095701 c -11.171541,15.25189 -23.811395,28.00108 -36.15039,35.125 l 2.037109,3.52735 c 12.303409,-7.10338 24.520272,-18.77805 35.375,-32.75977 -0.390574,-1.97312 -0.818069,-3.93608 -1.261719,-5.89258 z"
         style="fill:none;stroke:#008000;stroke-width:1"
         inkscape:connector-curvature="0" />
      <path
         id="path122"
         d="m 144.45508,35.126953 c -16.31246,9.418003 -22.68477,21.640484 -21.56836,34.210938 a 7.5590553,7.5590553 0 0 0 -4.14258,6.742187 7.5590553,7.5590553 0 0 0 0.008,0.195313 c -12.80947,3.923859 -26.610366,7.61919 -40.18945,11.365234 -0.992083,1.633629 -2.006124,3.250577 -3.039062,4.851563 14.896728,-4.05679 30.188152,-7.948109 44.460942,-12.265626 a 7.5590553,7.5590553 0 0 0 6.31835,3.414063 7.5590553,7.5590553 0 0 0 0.91016,-0.06445 c 5.8137,11.30641 17.01608,22.137645 31.79102,30.667965 l 2.03515,-3.52734 C 147.03315,102.63037 136.32744,92.570592 130.8166,82.134769 a 7.5590553,7.5590553 0 0 0 3.04492,-6.054688 7.5590553,7.5590553 0 0 0 -0.0117,-0.333984 c 10.12246,-3.521858 19.40046,-7.397553 27.18945,-11.894532 l -2.03515,-3.527343 c -7.25535,4.188873 -16.3424,7.953802 -26.47852,11.476562 a 7.5590553,7.5590553 0 0 0 -5.79492,-3.257812 C 126.04332,57.642313 131.9026,47.077597 146.49219,38.654297 Z M 71.921875,89.492188 C 49.278504,95.832248 27.845239,102.45148 13.529297,110.7168 l 2.037109,3.52734 c 14.100553,-8.14096 33.045082,-14.255216 53.160156,-19.882812 1.083599,-1.603751 2.148596,-3.225981 3.195313,-4.86914 z"
         style="fill:none;stroke:#008000;stroke-width:1"
         inkscape:connector-curvature="0" />
      <path
         id="path124"
         d="m 70.701172,11.693359 c 0,21.365624 -5.849382,39.484048 -16.576172,48.683594 0.653748,1.131796 1.289111,2.283567 1.904297,3.455078 11.956292,-9.898728 18.744141,-29.272976 18.744141,-52.138672 z m -55.134766,48.63086 -2.037109,3.527343 c 15.506641,8.952764 28.715887,8.855892 38.855469,2.595704 -0.594824,-1.171423 -1.206852,-2.321872 -1.837891,-3.451172 -9.002454,5.548617 -20.805393,5.512109 -34.980469,-2.671875 z"
         style="fill:none;stroke:#008000;stroke-width:1"
         inkscape:connector-curvature="0" />
    </g>
    <g
       id="g919"
       transform="matrix(0.26458333,0,0,0.26458333,120.45661,108.90292)">
      <path
         id="path890"
         style="fill:none;stroke:#ff0000;stroke-width:1"
         d="M 174.56878,87.284391 130.92659,162.87489 H 43.642196 L 0,87.284391 43.642196,11.693891 h 87.284394 z"
         inkscape:connector-curvature="0" />
      <path
         id="path892"
         style="fill:none;stroke:#008000;stroke-width:1"
         d="m 159.00307,114.245 c -34.64102,-19.999997 -47.15178,1.66928 -12.51077,21.66928 l -2.03663,3.52756 c -37.2391,-21.5 -20.65506,-50.224394 16.58403,-28.72439"
         inkscape:connector-curvature="0" />
      <path
         id="path894"
         style="fill:none;stroke:#008000;stroke-width:1"
         d="m 70.700357,162.87489 c 0,-40 -5.946226,-43.43305 -40.587242,-23.43305 l -2.036636,-3.52756 c 37.239092,-21.5 46.697149,-16.03939 46.697149,26.96061"
         inkscape:connector-curvature="0" />
      <path
         id="path896"
         style="fill:none;stroke:#008000;stroke-width:1"
         d="m 13.529081,110.71745 c 34.641016,-20.000004 34.641016,-26.866114 0,-46.866114 l 2.036635,-3.527557 c 37.239093,21.5 37.239093,32.421224 0,53.921221"
         inkscape:connector-curvature="0" />
      <path
         id="path898"
         style="fill:none;stroke:#008000;stroke-width:1"
         d="m 30.113115,35.126946 c 34.641016,20 79.701535,20 114.342555,0 l 2.03663,3.527557 c -37.23909,21.5 -81.176729,21.5 -118.415821,0"
         inkscape:connector-curvature="0" />
      <path
         id="path900"
         style="fill:none;stroke:#008000;stroke-width:1"
         d="m 74.773628,11.693891 c 0,40 25.021526,40 25.021526,0 h 4.073276 c 0,43 -33.168073,43 -33.168073,0"
         inkscape:connector-curvature="0" />
      <path
         id="path902"
         style="fill:none;stroke:#008000;stroke-width:1"
         d="m 161.0397,63.851336 c -34.64101,20 -57.17127,59.023554 -57.17127,99.023554 h -4.073276 c 0,-43 21.968816,-81.051111 59.207916,-102.551111"
         inkscape:connector-curvature="0" />
    </g>
    <g
       id="g939"
       transform="matrix(0.26458333,0,0,0.26458333,85.815618,168.90288)">
      <path
         id="path158"
         style="fill:none;stroke:#ff0000;stroke-width:1"
         d="M 174.56878,87.284391 130.92659,162.87489 H 43.642196 L 0,87.284391 43.642196,11.693891 h 87.284394 z"
         inkscape:connector-curvature="0" />
      <path
         id="path160"
         d="m 30.113281,35.126953 -2.037109,3.527344 38.304687,22.115234 c 1.446679,-0.695967 2.868278,-1.441718 4.259766,-2.24414 z m 44.472657,25.677735 c -1.333376,0.828726 -2.695293,1.609815 -4.082032,2.345703 l 39.185544,22.623047 c 0.40975,-1.333744 0.83371,-2.655524 1.27539,-3.966797 z m 40.343752,23.291015 c -0.4338,1.314251 -0.84865,2.643659 -1.25196,3.980469 l 45.32618,26.167968 2.03515,-3.52734 z"
         style="fill:none;stroke:#008000;stroke-width:1"
         inkscape:connector-curvature="0" />
      <path
         id="path162"
         style="fill:none;stroke:#008000;stroke-width:1"
         d="m 28.076479,135.91428 c 34.641016,-20 22.130254,-41.669277 -12.510763,-21.66928 l -2.036635,-3.52755 c 37.239092,-21.500004 53.823126,7.22439 16.584034,28.72439"
         inkscape:connector-curvature="0" />
      <path
         id="path164"
         d="m 99.794922,11.693359 c 0,14.804602 -6.797557,28.047208 -17.111328,37.847657 0.492262,1.338276 1.003671,2.678859 1.535156,4.023437 11.788629,-10.621781 19.65039,-25.330858 19.65039,-41.871094 z M 79.060547,52.728516 C 61.475415,67.025242 35.938158,72.085855 15.566406,60.324219 l -2.037109,3.527343 c 21.47602,12.399187 48.224157,7.44917 67.023437,-7.208984 -0.514047,-1.30508 -1.013651,-2.610978 -1.492187,-3.914062 z"
         style="fill:none;stroke:#008000;stroke-width:1"
         inkscape:connector-curvature="0" />
      <path
         id="path166"
         d="m 70.701172,11.693359 c 0,16.531412 5.40196,36.052783 14.164062,55.044922 l 7.167969,4.138672 C 81.56969,50.28587 74.773437,28.786537 74.773438,11.693359 Z m 17.320312,61.570313 c 4.727158,9.357929 10.222744,18.487532 16.246096,26.951168 0.67894,-0.650501 1.37293,-1.291393 2.06445,-1.93359 0.18143,-0.789285 0.38352,-1.568485 0.57422,-2.353516 -4.02133,-5.83804 -7.795259,-11.985372 -11.269531,-18.267578 z m 22.322266,27.527348 c -0.44466,1.96097 -0.8546,3.93451 -1.24609,5.9121 0,0 0,0.002 0,0.002 10.84982,13.97375 23.06005,25.63643 35.35742,32.73633 l 2.03711,-3.52735 C 134.1539,128.79055 121.5148,116.04179 110.34375,100.79102 Z"
         style="fill:none;stroke:#008000;stroke-width:1"
         inkscape:connector-curvature="0" />
      <path
         id="path168"
         d="m 144.45508,35.126953 c -20.50759,11.84006 -31.9607,36.34638 -38.12305,63.154297 1.9428,-1.808247 3.92568,-3.583691 5.94531,-5.326172 6.33605,-23.428661 16.97099,-44.345035 34.21485,-54.300781 z m -34.07422,65.492187 c -1.93779,1.79591 -3.84185,3.61842 -5.68945,5.47461 -3.72191,19.53577 -4.896488,39.74645 -4.896488,56.78125 h 4.074218 c 0,-17.93984 1.61546,-40.74656 6.51172,-62.25586 z"
         style="fill:none;stroke:#008000;stroke-width:1"
         inkscape:connector-curvature="0" />
      <path
         id="path170"
         d="m 159.00391,60.324219 c -12.3786,7.146786 -26.27971,16.131478 -39.33008,26.509765 l 4.05469,2.341797 C 136.37459,79.102478 149.6265,70.44061 161.03906,63.851562 Z M 116.2832,89.580078 C 91.532719,109.98213 70.701172,135.41467 70.701172,162.875 h 4.072266 c 0,-25.63891 21.216049,-50.86714 45.568362,-70.951172 z"
         style="fill:none;stroke:#008000;stroke-width:1"
         inkscape:connector-curvature="0" />
    </g>
    <g
       id="g993"
       transform="matrix(0.26458333,0,0,0.26458333,85.815618,8.9029939)">
      <path
         id="path224"
         style="fill:none;stroke:#ff0000;stroke-width:1"
         d="M 174.56878,87.284391 130.92659,162.87489 H 43.642196 L 0,87.284391 43.642196,11.693891 h 87.284394 z"
         inkscape:connector-curvature="0" />
      <path
         id="path226"
         d="m 127.93164,102.52539 c -0.7996,-0.007 -1.60262,-0.002 -2.4082,0.0117 -1.37973,0.0235 -2.76865,0.0791 -4.16406,0.16016 -0.65977,1.06509 -1.29143,2.14724 -1.91407,3.23437 0.30532,-0.5253 0.60835,-1.05246 0.91992,-1.57422 0.43498,0.94539 0.88364,1.87653 1.33985,2.79883 13.81109,-0.88856 26.72223,0.98149 37.29883,7.08789 l 2.03515,-3.52734 c -9.81889,-5.66895 -21.11343,-8.09176 -33.10742,-8.19141 z m -12.95312,0.74805 c -30.221003,3.48053 -62.953387,18.81369 -86.902348,32.64062 l 2.037109,3.52735 c 21.862835,-12.62252 53.667584,-27.30242 82.867189,-31.39649 0.79116,-1.5236 1.61339,-3.02921 2.4707,-4.51562 -0.0692,0.11975 -0.14219,0.23739 -0.21094,0.35742 -0.0891,-0.20263 -0.17353,-0.40979 -0.26171,-0.61328 z"
         style="fill:none;stroke:#008000;stroke-width:1"
         inkscape:connector-curvature="0" />
      <path
         id="path228"
         d="m 30.113281,35.126953 -2.037109,3.527344 c 22.900965,13.221879 34.145482,45.769097 39.140625,77.869143 1.380272,-0.56641 2.766455,-1.11802 4.160156,-1.66211 C 66.373058,81.977231 54.799196,49.379373 30.113281,35.126953 Z m 41.902344,84.164067 c -1.390438,0.53768 -2.776146,1.08051 -4.150391,1.63867 2.069673,14.94692 2.835938,29.60041 2.835938,41.94531 h 4.072266 c 0,-13.21493 -0.705859,-28.3438 -2.757813,-43.58398 z"
         style="fill:none;stroke:#008000;stroke-width:1"
         inkscape:connector-curvature="0" />
      <path
         id="path230"
         style="fill:none;stroke:#008000;stroke-width:1"
         d="m 13.529081,110.71745 c 34.641016,-20.000004 34.641016,-26.866114 0,-46.866114 l 2.036635,-3.527557 c 37.239093,21.5 37.239093,32.421224 0,53.921221"
         inkscape:connector-curvature="0" />
      <path
         id="path232"
         d="m 70.701172,11.693359 c 0,22.406564 10.469974,34.615419 25.765625,38.132813 a 7.5590549,7.5590553 0 0 0 6.289063,6.833984 c 2.30354,16.424541 6.18786,32.915263 12.48437,47.226564 0.91662,-1.60044 1.87813,-3.17535 2.8711,-4.73047 -5.35067,-13.23108 -8.84581,-28.229636 -11.04102,-43.048828 a 7.5590549,7.5590553 0 0 0 4.34375,-5.439453 c 10.9414,-0.973447 23.07453,-5.083393 35.07813,-12.013672 l -2.03711,-3.527344 c -11.4914,6.634562 -23.01901,10.672118 -33.30469,11.669922 a 7.5590549,7.5590553 0 0 0 -5.82617,-5.017578 c -1.03516,-10.73666 -1.45508,-21.035041 -1.45508,-30.085938 h -4.074218 c 0,9.422572 0.371848,19.824049 1.322268,30.53711 a 7.5590549,7.5590553 0 0 0 -3.964846,3.794922 C 83.774835,42.822733 74.773438,31.956711 74.773438,11.693359 Z m 49.664058,92.664061 c -0.93043,1.55806 -1.83706,3.12959 -2.69531,4.72852 6.48947,12.91762 15.19026,23.66115 26.78516,30.35547 l 2.03711,-3.52735 c -11.36296,-6.5604 -19.84156,-17.89579 -26.12696,-31.55664 z"
         style="fill:none;stroke:#008000;stroke-width:1"
         inkscape:connector-curvature="0" />
      <path
         id="path236"
         style="fill:none;stroke:#008000;stroke-width:1"
         d="m 161.0397,63.851336 c -34.64101,20 -57.17127,59.023554 -57.17127,99.023554 h -4.073276 c 0,-43 21.968816,-81.051111 59.207916,-102.551111"
         inkscape:connector-curvature="0" />
    </g>
    <g
       id="g1011"
       transform="matrix(0.26458333,0,0,0.26458333,51.174626,228.90283)">
      <path
         id="path246"
         style="fill:none;stroke:#ff0000;stroke-width:1"
         d="M 174.56878,87.284391 130.92659,162.87489 H 43.642196 L 0,87.284391 43.642196,11.693891 h 87.284394 z"
         inkscape:connector-curvature="0" />
      <path
         id="path248"
         d="m 30.113281,35.126953 -2.037109,3.527344 38.304687,22.115234 c 1.446679,-0.695967 2.868278,-1.441718 4.259766,-2.24414 z m 44.472657,25.677735 c -1.33312,0.828567 -2.695569,1.607985 -4.082032,2.34375 l 51.789064,29.90039 c 0.80788,-1.102502 1.63238,-2.194425 2.48047,-3.269531 z m 54.187502,31.283203 c -0.84251,1.077534 -1.66995,2.167131 -2.47461,3.273437 l 32.70508,18.882812 2.03515,-3.52734 z"
         style="fill:none;stroke:#008000;stroke-width:1"
         inkscape:connector-curvature="0" />
      <path
         id="path250"
         d="m 159.00391,60.324219 c -23.74374,13.708449 -41.27068,34.149833 -50.86133,58.308591 a 7.5590549,7.5590553 0 0 0 -7.09961,5.34571 C 83.300779,126.006 70.701172,138.30052 70.701172,162.875 h 4.072266 c 0,-22.10715 10.712964,-33.02636 26.136722,-35.01172 a 7.5590549,7.5590553 0 0 0 2.79101,4.33399 c -2.56389,9.81151 -3.906248,20.09297 -3.906248,30.67773 h 4.074218 c 0,-9.86857 1.39919,-19.67063 3.98828,-29.14844 a 7.5590549,7.5590553 0 0 0 0.41211,0.0195 7.5590549,7.5590553 0 0 0 7.24024,-5.39062 c 9.13197,1.58372 19.05332,5.37479 28.94531,11.08594 l 2.03711,-3.52735 c -10.48758,-6.05501 -21.07929,-9.9717 -30.88477,-11.51367 a 7.5590549,7.5590553 0 0 0 -3.0625,-4.44727 c 9.59186,-23.255145 26.62066,-43.472896 48.49414,-56.101558 z"
         style="fill:none;stroke:#008000;stroke-width:1"
         inkscape:connector-curvature="0" />
      <path
         id="path252"
         d="M 144.45508,35.126953 C 130.3972,43.243274 114.28276,58.100476 97.787109,74.199219 l 3.447271,1.990234 c 15.4265,-15.161219 30.69924,-29.129761 45.25781,-37.535156 z M 94.757812,77.152344 C 71.557432,99.926918 47.79884,124.52717 28.076172,135.91406 l 2.037109,3.52735 c 21.735576,-12.54904 45.05724,-37.44269 68.115235,-60.28516 z"
         style="fill:none;stroke:#008000;stroke-width:1"
         inkscape:connector-curvature="0" />
      <path
         id="path254"
         d="m 70.701172,11.693359 c 0,14.431455 -2.94816,28.73083 -8.324219,42.060547 l 3.996094,2.308594 c 5.484422,-13.766041 8.400391,-28.737797 8.400391,-44.369141 z m -9.923828,45.841797 c -9.785691,22.02291 -26.295358,41.0846 -47.248047,53.181644 l 2.037109,3.52734 C 38.016549,101.28254 54.904521,82.29993 64.787109,59.849609 Z"
         style="fill:none;stroke:#008000;stroke-width:1"
         inkscape:connector-curvature="0" />
      <path
         id="path256"
         d="m 99.794922,11.693359 c 0,22.647034 -15.897563,41.644993 -35.976563,50.240235 -0.830146,1.788436 -1.697701,3.557639 -2.617187,5.298828 C 84.63397,58.973281 103.86914,37.571579 103.86914,11.693359 Z m -84.228516,48.63086 -2.037109,3.527343 c 12.825934,7.405057 27.53324,8.620015 41.304687,5.277344 0.934807,-1.604111 1.822788,-3.234874 2.681641,-4.880859 -13.811814,4.238205 -28.934743,3.590083 -41.949219,-3.923828 z"
         style="fill:none;stroke:#008000;stroke-width:1"
         inkscape:connector-curvature="0" />
    </g>
    <g
       id="g1029"
       transform="matrix(0.26458333,0,0,0.26458333,85.815618,208.90285)">
      <path
         id="path268"
         style="fill:none;stroke:#ff0000;stroke-width:1"
         d="M 174.56878,87.284391 130.92659,162.87489 H 43.642196 L 0,87.284391 43.642196,11.693891 h 87.284394 z"
         inkscape:connector-curvature="0" />
      <path
         id="path270"
         d="m 70.701172,11.693359 v 46.867188 l 4.072266,2.351562 v -49.21875 z m 0,51.570313 v 28.164062 c 1.39494,-2.140629 2.745912,-4.323083 4.072266,-6.523437 V 65.615234 Z m 4.072266,30.394531 c -0.135019,0.206355 -0.274323,0.407787 -0.410157,0.613281 l 0.410157,0.236328 z M 72.25,97.396484 c -0.513998,0.744513 -1.02831,1.489332 -1.548828,2.226563 V 162.875 h 4.072266 V 99.210938 l -2.697266,-1.556641 c 0.05866,-0.08521 0.115254,-0.172515 0.173828,-0.257813 z"
         style="fill:none;stroke:#008000;stroke-width:1"
         inkscape:connector-curvature="0" />
      <path
         id="path272"
         d="m 99.794922,11.693359 c 0,15.913197 -5.884724,35.657374 -15.134766,54.927735 l 2.623047,1.513672 2.414063,-1.392578 C 98.457983,47.747931 103.86914,28.224982 103.86914,11.693359 Z M 82.859375,70.283203 c -0.09567,0.189926 -0.186908,0.380538 -0.283203,0.570313 l 0.634766,-0.367188 z m 3.6875,2.980469 -7.552734,4.359375 C 65.176062,102.64544 46.293184,125.39647 28.076172,135.91406 l 2.037109,3.52735 C 51.389992,127.15729 72.418156,101.24142 86.546875,73.263672 Z"
         style="fill:none;stroke:#008000;stroke-width:1"
         inkscape:connector-curvature="0" />
      <path
         id="path274"
         d="m 15.566406,60.324219 -2.037109,3.527343 54.550781,31.494141 c 0.765504,-1.119903 1.521579,-2.252126 2.269531,-3.392578 z m 143.437504,0 c -20.94909,12.094957 -37.05046,29.435547 -47.14063,49.941401 a 7.5590549,7.5590553 0 0 0 -0.53906,-0.0273 7.5590549,7.5590553 0 0 0 -5.38281,2.26367 L 74.361328,94.269531 c -0.751265,1.139312 -1.514749,2.265557 -2.285156,3.384766 l 31.896488,18.416013 a 7.5590549,7.5590553 0 0 0 -0.20704,1.72657 7.5590549,7.5590553 0 0 0 2.58204,5.68164 c -4.28737,12.37176 -6.552738,25.62804 -6.552738,39.39648 h 4.074218 c 0,-12.82371 2.33268,-25.54089 6.62305,-37.56836 a 7.5590549,7.5590553 0 0 0 0.83203,0.0488 7.5590549,7.5590553 0 0 0 5.17383,-2.05469 l 27.95703,16.14063 2.03711,-3.52735 -27.88867,-16.10351 a 7.5590549,7.5590553 0 0 0 0.27929,-2.01367 7.5590549,7.5590553 0 0 0 -2.69922,-5.78907 c 9.97547,-19.884361 25.51611,-36.99066 44.85547,-48.156248 z"
         style="fill:none;stroke:#008000;stroke-width:1"
         inkscape:connector-curvature="0" />
      <path
         id="path276"
         d="m 30.113281,35.126953 -2.037109,3.527344 55.134766,31.832031 4.072265,-2.351562 z m 61.244141,35.359375 -4.072266,2.351563 35.025394,20.220703 c 0.80786,-1.102581 1.63435,-2.192389 2.48242,-3.267578 z m 37.431638,21.611328 c -0.84272,1.077841 -1.66777,2.168768 -2.47265,3.275391 l 32.6875,18.871093 2.03515,-3.52734 z"
         style="fill:none;stroke:#008000;stroke-width:1"
         inkscape:connector-curvature="0" />
      <path
         id="path278"
         d="M 144.45508,35.126953 74.773438,75.357422 v 4.703125 l 71.718752,-41.40625 z m -73.753908,42.582031 -12.511719,7.222657 4.072266,2.353515 8.439453,-4.873047 z m -16.585938,9.576172 -40.585937,23.431644 2.037109,3.52734 42.623047,-24.607421 z"
         style="fill:none;stroke:#008000;stroke-width:1"
         inkscape:connector-curvature="0" />
    </g>
    <g
       id="g1047"
       transform="matrix(0.26458333,0,0,0.26458333,155.0976,48.902966)">
      <path
         id="path290"
         style="fill:none;stroke:#ff0000;stroke-width:1"
         d="M 174.56878,87.284391 130.92659,162.87489 H 43.642196 L 0,87.284391 43.642196,11.693891 h 87.284394 z"
         inkscape:connector-curvature="0" />
      <path
         id="path292"
         d="m 15.566406,60.324219 -2.037109,3.527343 c 12.323324,7.114875 29.936292,13.006279 49.035156,18.554688 l 4.582031,-2.644531 C 47.623605,74.256067 29.295778,68.250875 15.566406,60.324219 Z m 57.082032,20.96289 -4.650391,2.685547 c 33.219303,9.423813 69.851893,18.058234 91.005863,30.271484 l 2.03515,-3.52734 C 138.81052,97.883142 104.5734,90.068801 72.648438,81.287109 Z"
         style="fill:none;stroke:#008000;stroke-width:1"
         inkscape:connector-curvature="0" />
      <path
         id="path294"
         style="fill:none;stroke:#008000;stroke-width:1"
         d="m 144.45567,139.44184 c -34.64102,-20 -40.58724,-16.56695 -40.58724,23.43305 h -4.073276 c 0,-43 9.458056,-48.46061 46.697146,-26.96061"
         inkscape:connector-curvature="0" />
      <path
         id="path296"
         style="fill:none;stroke:#008000;stroke-width:1"
         d="m 70.700357,162.87489 c 0,-40 -5.946226,-43.43305 -40.587242,-23.43305 l -2.036636,-3.52756 c 37.239092,-21.5 46.697149,-16.03939 46.697149,26.96061"
         inkscape:connector-curvature="0" />
      <path
         id="path298"
         d="m 70.701172,11.693359 c 0,10.407498 3.122651,20.084299 8.367187,28.480469 a 7.5590549,7.5590553 0 0 0 -1.435547,4.417969 7.5590549,7.5590553 0 0 0 0.125,1.359375 C 64.688442,49.22391 47.352755,45.080168 30.113281,35.126953 l -2.037109,3.527344 C 46.484038,49.282083 65.210706,53.3177 79.445312,49.492188 a 7.5590549,7.5590553 0 0 0 5.746094,2.658203 7.5590549,7.5590553 0 0 0 2.994141,-0.626953 C 106.93751,70.017397 137.22769,77.59907 161.03906,63.851562 l -2.03515,-3.527343 C 136.9494,73.057393 108.8437,66.070776 91.326172,48.996094 A 7.5590549,7.5590553 0 0 0 92.75,44.591797 7.5590549,7.5590553 0 0 0 92.476562,42.580078 C 99.575296,36.197765 103.86914,26.035687 103.86914,11.693359 h -4.074218 c 0,12.666327 -3.516001,21.662065 -9.417969,27.41211 a 7.5590549,7.5590553 0 0 0 -5.185547,-2.072266 7.5590549,7.5590553 0 0 0 -2.958984,0.611328 C 77.546081,29.95601 74.773438,21.143524 74.773438,11.693359 Z"
         style="fill:none;stroke:#008000;stroke-width:1"
         inkscape:connector-curvature="0" />
      <path
         id="path302"
         d="m 144.45508,35.126953 -40.52735,23.398438 c 1.39149,0.802422 2.81504,1.548173 4.26172,2.24414 L 146.49219,38.654297 Z M 99.982422,60.802734 13.529297,110.7168 l 2.037109,3.52734 88.498044,-51.095702 c -1.38663,-0.735865 -2.74876,-1.517014 -4.082028,-2.345704 z"
         style="fill:none;stroke:#008000;stroke-width:1"
         inkscape:connector-curvature="0" />
    </g>
    <g
       id="g1065"
       transform="matrix(0.26458333,0,0,0.26458333,85.815618,48.902966)">
      <path
         id="path985"
         style="fill:none;stroke:#ff0000;stroke-width:1"
         d="M 174.56878,87.284391 130.92659,162.87489 H 43.642196 L 0,87.284391 43.642196,11.693891 h 87.284394 z"
         inkscape:connector-curvature="0" />
      <path
         id="path987"
         d="m 70.701172,11.693359 c 0,12.742801 2.962158,28.661279 6.986328,45.716797 1.416933,0.509043 2.838945,1.002787 4.265625,1.484375 -4.119082,-17.049476 -7.179687,-33.29196 -7.179687,-47.201172 z m 8.228516,50.837891 c 8.604497,35.215384 20.865234,74.34984 20.865234,100.34375 h 4.074218 c 0,-27.71222 -12.063602,-64.619819 -20.656249,-98.882812 -1.431726,-0.471887 -2.858723,-0.958735 -4.283203,-1.460938 z"
         style="fill:none;stroke:#008000;stroke-width:1"
         inkscape:connector-curvature="0" />
      <path
         id="path989"
         d="m 35.955078,103.67969 c -6.766797,0.12826 -14.27973,2.33398 -22.425781,7.03711 l 2.037109,3.52734 c 12.767985,-7.3716 23.610461,-8.12988 32.216797,-4.1543 0.129145,-1.41772 0.144554,-2.84428 0.04297,-4.27734 -3.642769,-1.4654 -7.607928,-2.21362 -11.871095,-2.13281 z m 15.84961,4.08789 c 0.0112,1.48325 -0.08687,2.9591 -0.294922,4.42383 12.388887,8.37312 19.191406,27.64057 19.191406,50.68359 h 4.072266 c 0,-25.43503 -8.399727,-46.54957 -22.96875,-55.10742 z"
         style="fill:none;stroke:#008000;stroke-width:1"
         inkscape:connector-curvature="0" />
      <path
         id="path991"
         style="fill:none;stroke:#008000;stroke-width:1"
         d="m 28.076479,135.91428 c 34.641016,-20 20.093618,-52.062944 -14.547398,-72.062944 l 2.036635,-3.527557 c 37.239093,21.5 51.786491,57.618061 14.547399,79.118061"
         inkscape:connector-curvature="0" />
      <path
         id="path993"
         d="m 30.113281,35.126953 -2.037109,3.527344 c 21.313689,12.305464 49.585143,25.806766 76.851558,31.085937 -0.31156,-1.585453 -0.60275,-3.176105 -0.88085,-4.769531 C 77.444101,59.479246 49.763009,46.471729 30.113281,35.126953 Z m 114.341799,0 c -13.13419,7.583027 -19.80096,16.986642 -21.32617,26.923828 a 7.5590553,7.5590549 0 0 0 -5.1875,5.056641 c -3.05024,-0.301285 -6.13463,-0.717262 -9.24414,-1.25586 0.29726,1.575615 0.61114,3.14717 0.9414,4.714844 2.79433,0.442629 5.56966,0.77878 8.32422,1.025391 a 7.5590553,7.5590549 0 0 0 6.46289,5.259765 c 4.33237,13.673408 16.8921,27.181548 34.57813,37.392578 l 2.03515,-3.52734 C 144.39743,101.10874 132.40032,88.717843 128.25977,76.216797 A 7.5590553,7.5590549 0 0 0 132.27539,71.875 c 10.37387,-0.59105 20.14108,-3.04518 28.76367,-8.023438 l -2.03515,-3.527343 c -7.76681,4.484168 -16.79093,6.690709 -26.50586,7.195312 a 7.5590553,7.5590549 0 0 0 -5.36328,-5.478515 c 1.61976,-8.548957 7.69298,-16.652253 19.35742,-23.386719 z"
         style="fill:none;stroke:#008000;stroke-width:1"
         inkscape:connector-curvature="0" />
      <path
         id="path995"
         style="fill:none;stroke:#008000;stroke-width:1"
         d="m 103.86843,11.693891 c 0,40 7.98286,104.220389 42.62387,124.220389 l -2.03663,3.52756 c -37.2391,-21.5 -44.660516,-84.747949 -44.660516,-127.747949"
         inkscape:connector-curvature="0" />
    </g>
    <g
       id="g1137"
       transform="matrix(0.26458333,0,0,0.26458333,120.45661,68.902952)">
      <path
         id="path1073"
         style="fill:none;stroke:#ff0000;stroke-width:1"
         d="M 174.56878,87.284391 130.92659,162.87489 H 43.642196 L 0,87.284391 43.642196,11.693891 h 87.284394 z"
         inkscape:connector-curvature="0" />
      <path
         id="path1075"
         d="m 30.113281,35.126953 -2.037109,3.527344 c 13.627428,7.867799 29.188195,22.06802 45.154297,37.59375 l 3.642578,-2.103516 C 60.936426,58.415306 45.144016,43.804952 30.113281,35.126953 Z m 49.765625,41.986328 -3.61914,2.089844 c 9.309428,9.114046 18.721913,18.564224 27.945314,27.396485 a 7.5590553,7.5590549 0 0 0 -1.17188,4.02734 7.5590553,7.5590549 0 0 0 0.11133,1.29493 C 84.592401,122.13036 70.701172,140.88426 70.701172,162.875 h 4.072266 c 0,-20.37655 12.870638,-37.79624 30.076172,-47.3457 a 7.5590553,7.5590549 0 0 0 5.74219,2.65625 7.5590553,7.5590549 0 0 0 4.45117,-1.46094 c 10.36023,9.39362 20.31701,17.46574 29.41211,22.7168 l 2.03711,-3.52735 c -9.43036,-5.44461 -19.16026,-13.22062 -29.03711,-22.13867 a 7.5590553,7.5590549 0 0 0 0.69531,-3.14844 7.5590553,7.5590549 0 0 0 -0.0273,-0.60351 c 13.52082,-3.885 28.20014,-3.10051 40.88086,4.2207 l 2.03515,-3.52734 c -8.14605,-4.70313 -17.05003,-6.90885 -25.99218,-7.03711 -6.16296,-0.0884 -12.34133,0.82052 -18.30274,2.57226 a 7.5590553,7.5590549 0 0 0 -6.15234,-3.18359 7.5590553,7.5590549 0 0 0 -3.60352,0.92187 C 97.991022,95.337887 88.918484,86.096795 79.878906,77.113281 Z"
         style="fill:none;stroke:#008000;stroke-width:1"
         inkscape:connector-curvature="0" />
      <path
         id="path1079"
         d="m 68.421875,123.6582 c -12.231814,-0.078 -26.381043,4.19336 -40.345703,12.25586 l 2.037109,3.52735 C 49.322229,128.35112 68.650456,124.4734 82.0625,130.0332 c 0.808045,-1.07144 1.651967,-2.11748 2.529297,-3.13672 -4.783127,-2.1383 -10.250233,-3.20051 -16.169922,-3.23828 z m 19.808594,5.15821 c -0.874924,0.98933 -1.713394,2.00723 -2.517578,3.05078 8.670304,5.22251 14.082031,15.29048 14.082031,31.00781 h 4.074218 c 0,-17.01156 -6.039113,-28.14283 -15.638671,-34.05859 z"
         style="fill:none;stroke:#008000;stroke-width:1"
         inkscape:connector-curvature="0" />
      <path
         id="path1081"
         d="m 99.794922,11.693359 c 0,22.549012 -15.759026,41.483247 -35.714844,50.13086 1.042943,0.974794 2.087351,1.968502 3.132813,2.96289 20.623181,-9.569377 36.656249,-29.466752 36.656249,-53.09375 z m -84.228516,48.63086 -2.037109,3.527343 c 15.426011,8.906212 33.571564,8.855145 49.539062,2.691407 -1.097827,-1.028508 -2.19108,-2.04148 -3.28125,-3.044922 -14.409889,5.034614 -30.488376,4.754534 -44.220703,-3.173828 z"
         style="fill:none;stroke:#008000;stroke-width:1"
         inkscape:connector-curvature="0" />
      <path
         id="path1083"
         d="m 70.701172,11.693359 c 0,13.664045 5.365947,26.078786 13.876953,35.972657 0.936279,-0.970764 1.840726,-1.968884 2.707031,-2.998047 C 79.59754,35.535518 74.773438,24.16721 74.773438,11.693359 Z m 19.289062,35.972657 c -0.869844,1.011162 -1.77181,1.99605 -2.705078,2.953125 18.671834,19.147659 49.557984,27.201942 73.753904,13.232421 l -2.03515,-3.527343 C 136.38248,73.384703 107.38834,65.705095 89.990234,47.666016 Z"
         style="fill:none;stroke:#008000;stroke-width:1"
         inkscape:connector-curvature="0" />
      <path
         id="path1085"
         d="m 144.45508,35.126953 -40.52735,23.398438 c 1.39149,0.802422 2.81504,1.548173 4.26172,2.24414 L 146.49219,38.654297 Z M 99.982422,60.802734 13.529297,110.7168 l 2.037109,3.52734 88.498044,-51.095702 c -1.38663,-0.735865 -2.74876,-1.517014 -4.082028,-2.345704 z"
         style="fill:none;stroke:#008000;stroke-width:1"
         inkscape:connector-curvature="0" />
    </g>
    <g
       id="g1157"
       transform="matrix(0.26458333,0,0,0.26458333,85.815618,128.90291)">
      <path
         id="path1095"
         style="fill:none;stroke:#ff0000;stroke-width:1"
         d="M 174.56878,87.284391 130.92659,162.87489 H 43.642196 L 0,87.284391 43.642196,11.693891 h 87.284394 z"
         inkscape:connector-curvature="0" />
      <path
         id="path1097"
         style="fill:none;stroke:#008000;stroke-width:1"
         d="m 159.00307,114.245 c -34.64102,-19.999997 -47.15178,1.66928 -12.51077,21.66928 l -2.03663,3.52756 c -37.2391,-21.5 -20.65506,-50.224394 16.58403,-28.72439"
         inkscape:connector-curvature="0" />
      <path
         id="path1099"
         style="fill:none;stroke:#008000;stroke-width:1"
         d="m 99.795154,162.87489 c 0,-40 -25.021526,-40 -25.021526,0 h -4.073271 c 0,-43 33.168073,-43 33.168073,0"
         inkscape:connector-curvature="0" />
      <path
         id="path1101"
         d="m 30.113281,35.126953 -2.037109,3.527344 c 16.009201,9.242917 24.614142,26.444754 25.826172,44.248047 1.251438,-1.029085 2.493668,-2.07126 3.726562,-3.126953 C 55.646111,61.708837 46.476644,44.574345 30.113281,35.126953 Z m 27.896485,50.089844 c -1.313042,1.079439 -2.636545,2.144692 -3.96875,3.195312 -0.330351,18.935791 -8.98124,37.696461 -25.964844,47.501951 l 2.037109,3.52735 C 49.352782,128.33348 58.650362,106.59847 58.009766,85.216797 Z"
         style="fill:none;stroke:#008000;stroke-width:1"
         inkscape:connector-curvature="0" />
      <path
         id="path1103"
         d="m 99.794922,11.693359 c 0,18.288855 -10.805299,36.36783 -25.832031,52.523438 2.604953,-0.598318 5.216545,-1.282219 7.826171,-2.007813 C 94.913399,46.800948 103.86914,29.683547 103.86914,11.693359 Z M 76.328125,68.289062 C 73.65821,68.92928 70.991645,69.502704 68.335938,69.992188 51.325333,86.691683 30.415425,100.96759 13.529297,110.7168 l 2.037109,3.52734 c 19.57911,-11.304 42.970303,-27.186826 60.761719,-45.955078 z"
         style="fill:none;stroke:#008000;stroke-width:1"
         inkscape:connector-curvature="0" />
      <path
         id="path1105"
         d="m 144.45508,35.126953 c -12.33843,7.123595 -27.84872,14.897431 -44.26563,21.0625 1.52183,1.022055 3.08742,1.979972 4.69141,2.869141 15.14099,-6.040295 29.50228,-13.413137 41.61133,-20.404297 z M 95.617188,57.853516 c -13.473592,4.755229 -27.409783,8.300057 -40.597657,9.414062 0.448675,1.442647 0.841286,2.902993 1.189453,4.376953 14.380873,-1.235996 29.434248,-5.304691 43.921876,-10.746093 -1.544609,-0.954575 -3.05092,-1.972205 -4.513672,-3.044922 z m -80.050782,2.470703 -2.037109,3.527343 c 11.314035,6.532162 24.589364,8.746218 38.632812,8.06836 -0.36883,-1.480011 -0.7916,-2.942865 -1.269531,-4.386719 -13.066994,0.591519 -25.252574,-1.39299 -35.326172,-7.208984 z"
         style="fill:none;stroke:#008000;stroke-width:1"
         inkscape:connector-curvature="0" />
      <path
         id="path1107"
         d="m 70.701172,11.693359 c 0,14.445794 5.997909,27.494346 15.36914,37.644532 0.79117,-1.137597 1.552278,-2.282088 2.28711,-3.431641 C 80.048268,36.572402 74.773438,24.737843 74.773438,11.693359 Z m 20.822266,37.501953 c -0.727776,1.131051 -1.482595,2.254642 -2.261719,3.371094 18.820221,17.732228 48.417941,24.771713 71.777341,11.285156 l -2.03515,-3.527343 C 137.03365,73.00875 109.05472,66.12741 91.523438,49.195312 Z"
         style="fill:none;stroke:#008000;stroke-width:1"
         inkscape:connector-curvature="0" />
    </g>
    <g
       id="g1175"
       transform="matrix(0.26458333,0,0,0.26458333,16.533634,248.90299)">
      <path
         id="path1117"
         style="fill:none;stroke:#ff0000;stroke-width:1"
         d="M 174.56878,87.284391 130.92659,162.87489 H 43.642196 L 0,87.284391 43.642196,11.693891 h 87.284394 z"
         inkscape:connector-curvature="0" />
      <path
         id="path1119"
         d="m 47.402344,102.54688 c -12.275807,0.003 -23.847794,2.38183 -33.873047,8.16992 l 2.037109,3.52734 c 9.294019,-5.3659 20.392384,-7.45472 32.316406,-7.28711 -0.04201,-1.46461 -0.20406,-2.93586 -0.480468,-4.41015 z m 3.943359,0.0781 c 0.253003,1.49208 0.399569,2.98182 0.443359,4.46484 17.912599,0.96377 37.418437,6.69439 55.390628,14.03125 0.50064,-1.35091 1.02484,-2.69129 1.57422,-4.01953 C 90.086953,109.31751 70.018628,103.37309 51.345703,102.625 Z m 61.628907,16.26953 c -0.55934,1.31948 -1.09668,2.6475 -1.60742,3.98633 12.21485,5.22036 23.59422,11.07937 33.08789,16.56055 l 2.03711,-3.52735 c -9.92964,-5.73288 -21.37365,-11.72037 -33.51758,-17.01953 z"
         style="fill:none;stroke:#008000;stroke-width:1"
         inkscape:connector-curvature="0" />
      <path
         id="path1121"
         d="m 70.701172,11.693359 v 29.791016 a 7.5590553,7.5590549 0 0 0 -5.519531,5.447266 C 54.460918,46.25435 42.267837,42.144389 30.113281,35.126953 l -2.037109,3.527344 c 12.758092,7.365888 25.661209,11.54439 37.123047,12.152344 a 7.5590553,7.5590549 0 0 0 5.501953,5.347656 V 105.0293 c 1.35534,0.27271 2.713444,0.56927 4.072266,0.88086 V 56.017578 a 7.5590553,7.5590549 0 0 0 5.25,-6.693359 C 94.266409,45.246408 103.86914,33.147268 103.86914,11.693359 h -4.074218 c 0,19.304663 -8.172632,30.072332 -20.513672,33.816407 A 7.5590553,7.5590549 0 0 0 74.773438,41.617188 V 11.693359 Z m 0,97.939451 V 162.875 h 4.072266 v -52.33789 c -1.359682,-0.31919 -2.71688,-0.62284 -4.072266,-0.9043 z"
         style="fill:none;stroke:#008000;stroke-width:1"
         inkscape:connector-curvature="0" />
      <path
         id="path1123"
         style="fill:none;stroke:#008000;stroke-width:1"
         d="m 28.076479,135.91428 c 34.641016,-20 20.093618,-52.062944 -14.547398,-72.062944 l 2.036635,-3.527557 c 37.239093,21.5 51.786491,57.618061 14.547399,79.118061"
         inkscape:connector-curvature="0" />
      <path
         id="path1127"
         style="fill:none;stroke:#008000;stroke-width:1"
         d="m 146.4923,38.654503 c -34.64101,20 -20.09361,52.062943 14.5474,72.062947 l -2.03663,3.52755 c -37.2391,-21.499997 -51.7865,-57.618054 -14.5474,-79.118054"
         inkscape:connector-curvature="0" />
      <path
         id="path1129"
         d="m 159.00391,60.324219 c -10.62723,6.135634 -20.00594,13.623694 -27.99024,22.185547 0.72369,1.338499 1.52745,2.670126 2.41797,3.992187 7.92956,-8.933711 17.21809,-16.652106 27.60742,-22.650391 z m -30.71875,25.21875 C 110.00338,106.57703 99.794922,133.57434 99.794922,162.875 h 4.074218 c 0,-26.66449 10.02186,-52.88719 26.95898,-73.337891 -0.91473,-1.321652 -1.77549,-2.652847 -2.54296,-3.99414 z"
         style="fill:none;stroke:#008000;stroke-width:1"
         inkscape:connector-curvature="0" />
    </g>
    <g
       id="g1211"
       transform="matrix(0.26458333,0,0,0.26458333,16.533634,8.9029905)">
      <path
         id="path1161"
         style="fill:none;stroke:#ff0000;stroke-width:1"
         d="M 174.56878,87.284391 130.92659,162.87489 H 43.642196 L 0,87.284391 43.642196,11.693891 h 87.284394 z"
         inkscape:connector-curvature="0" />
      <path
         id="path1163"
         d="m 99.794922,11.693359 c 0,28.596001 3.304108,66.12611 16.457028,94.396481 a 7.5590553,7.5590549 0 0 0 -2.5,5.60547 7.5590553,7.5590549 0 0 0 0.65821,3.0625 c -9.37679,10.64188 -14.615238,28.03253 -14.615238,48.11719 h 4.074218 c 0,-18.85325 4.5571,-35.17417 12.99805,-45.07422 a 7.5590553,7.5590549 0 0 0 4.44336,1.45313 7.5590553,7.5590549 0 0 0 2.09179,-0.29883 c 5.64972,8.50356 12.56819,15.58777 21.05274,20.48633 l 2.03711,-3.52735 c -7.74811,-4.47336 -14.1491,-11.1763 -19.43555,-19.3125 a 7.5590553,7.5590549 0 0 0 1.8125,-4.90625 7.5590553,7.5590549 0 0 0 -0.375,-2.32617 c 8.31719,-3.13168 18.57363,-2.01633 30.50977,4.875 l 2.03515,-3.52734 c -13.49796,-7.79305 -25.25407,-8.72895 -34.76172,-4.71289 a 7.5590553,7.5590549 0 0 0 -4.96679,-1.86914 7.5590553,7.5590549 0 0 0 -1.00196,0.0762 C 107.48271,76.240648 103.86914,38.528449 103.86914,11.693359 Z"
         style="fill:none;stroke:#008000;stroke-width:1"
         inkscape:connector-curvature="0" />
      <path
         id="path1165"
         style="fill:none;stroke:#008000;stroke-width:1"
         d="m 70.700357,162.87489 c 0,-40 -5.946226,-43.43305 -40.587242,-23.43305 l -2.036636,-3.52756 c 37.239092,-21.5 46.697149,-16.03939 46.697149,26.96061"
         inkscape:connector-curvature="0" />
      <path
         id="path1167"
         style="fill:none;stroke:#008000;stroke-width:1"
         d="M 13.529081,110.71745 C 48.170097,90.717446 70.700357,51.693891 70.700357,11.693891 h 4.073271 c 0,43 -21.968819,81.051112 -59.207912,102.551109"
         inkscape:connector-curvature="0" />
      <path
         id="path1169"
         style="fill:none;stroke:#008000;stroke-width:1"
         d="m 15.565716,60.323779 c 34.641017,20 47.151779,-1.669276 12.510763,-21.669276 l 2.036636,-3.527557 c 37.239092,21.5 20.655058,50.22439 -16.584034,28.72439"
         inkscape:connector-curvature="0" />
      <path
         id="path1173"
         style="fill:none;stroke:#008000;stroke-width:1"
         d="m 146.4923,38.654503 c -34.64101,20 -22.13025,41.669276 12.51077,21.669276 l 2.03663,3.527557 c -37.23909,21.5 -53.82313,-7.22439 -16.58403,-28.72439"
         inkscape:connector-curvature="0" />
    </g>
    <g
       id="g1229"
       transform="matrix(0.26458333,0,0,0.26458333,155.09741,88.903079)">
      <path
         id="path1183"
         style="fill:none;stroke:#ff0000;stroke-width:1"
         d="M 174.56878,87.284391 130.92659,162.87489 H 43.642196 L 0,87.284391 43.642196,11.693891 h 87.284394 z"
         inkscape:connector-curvature="0" />
      <path
         id="path1185"
         d="m 70.701172,11.693359 v 78.023438 c 1.356047,-0.37331 2.708926,-0.748877 4.072266,-1.119141 V 11.693359 Z m 4.072266,81.083985 c -1.357768,0.379708 -2.724132,0.756738 -4.072266,1.138672 V 162.875 h 4.072266 z"
         style="fill:none;stroke:#008000;stroke-width:1"
         inkscape:connector-curvature="0" />
      <path
         id="path1187"
         d="m 15.566406,60.324219 -2.037109,3.527343 c 13.989519,8.076853 24.693711,18.122391 30.212891,28.544922 a 7.5590553,7.5590549 0 0 0 -3.466797,6.355469 7.5590553,7.5590549 0 0 0 0.0078,0.228516 C 30.332282,102.46077 21.204634,106.28544 13.529297,110.7168 l 2.037109,3.52734 c 7.134781,-4.11926 16.053674,-7.82605 25.984375,-11.29883 a 7.5590553,7.5590549 0 0 0 6.283203,3.36524 7.5590553,7.5590549 0 0 0 0.02148,0 c 0.568232,10.79998 -5.316167,21.25322 -19.779297,29.60351 l 2.037109,3.52735 c 16.305639,-9.41407 22.681615,-21.63032 21.572266,-34.19532 a 7.5590553,7.5590549 0 0 0 3.707031,-6.494137 7.5590553,7.5590549 0 0 0 -0.01172,-0.330078 C 71.644325,93.418386 89.530661,88.789894 106.55078,83.960938 L 101.9043,81.279297 C 85.931592,85.674571 69.405479,89.837916 54.072266,94.5 a 7.5590553,7.5590549 0 0 0 -6.238282,-3.306641 7.5590553,7.5590549 0 0 0 -0.384765,0.01367 C 41.667279,79.823467 30.434165,68.908123 15.566406,60.324219 Z m 143.437504,0 c -11.32549,6.538775 -25.78219,11.769299 -41.45313,16.492187 -0.57147,1.461565 -1.11807,2.945529 -1.64648,4.445313 17.58082,-5.216927 33.65548,-10.782589 45.13476,-17.410157 z m -46.86719,18.076172 c -1.56717,0.454358 -3.15353,0.90065 -4.73828,1.347656 l 3.54492,2.046875 c -0.0811,0.240647 -0.15453,0.48695 -0.23438,0.728516 0.4593,-1.386888 0.9317,-2.763889 1.42774,-4.123047 z"
         style="fill:none;stroke:#008000;stroke-width:1"
         inkscape:connector-curvature="0" />
      <path
         id="path1189"
         d="m 30.113281,35.126953 -2.037109,3.527344 42.625,24.609375 v -4.703125 z m 44.660157,25.785156 v 4.703125 l 34.896482,20.146485 c 0.40956,-1.332516 0.83196,-2.65673 1.27344,-3.966797 z m 40.158202,23.183594 c -0.4342,1.315243 -0.85027,2.642614 -1.25391,3.980469 l 45.32618,26.167968 2.03515,-3.52734 z"
         style="fill:none;stroke:#008000;stroke-width:1"
         inkscape:connector-curvature="0" />
      <path
         id="path1191"
         d="m 99.794922,11.693359 c 0,20.299837 1.675888,45.102675 7.341798,67.904297 l 3.80664,2.197266 c -0.13326,0.395446 -0.25481,0.799402 -0.38477,1.197266 0.38213,-1.160341 0.77358,-2.314265 1.17969,-3.457032 -5.9598,-23.085238 -7.86914,-48.339344 -7.86914,-67.841797 z m 10.382808,72.484375 c -0.16801,0.529002 -0.34429,1.051964 -0.50781,1.583985 l -1.06054,-0.611328 c 0.20096,0.711293 0.39207,1.428791 0.60156,2.134765 0.30989,-1.044369 0.63667,-2.076948 0.96679,-3.107422 z m 3.7461,3.107422 c -0.0151,0.04907 -0.0279,0.09934 -0.043,0.148438 0.0148,-0.04839 0.0301,-0.09616 0.0449,-0.144532 -4.2e-4,-0.0014 -0.002,-0.0025 -0.002,-0.0039 z m -0.23438,0.796875 c -0.69149,2.291484 -1.34579,4.60816 -1.95117,6.953125 6.7814,19.081744 17.12942,35.406874 32.7168,44.406254 l 2.03711,-3.52735 c -15.54834,-8.97683 -25.70565,-26.87675 -32.20117,-47.482419 z"
         style="fill:none;stroke:#008000;stroke-width:1"
         inkscape:connector-curvature="0" />
      <path
         id="path1193"
         style="fill:none;stroke:#008000;stroke-width:1"
         d="m 146.4923,38.654503 c -34.64101,20 -42.62387,84.220387 -42.62387,124.220387 h -4.073276 c 0,-43 7.421416,-106.247944 44.660516,-127.747944"
         inkscape:connector-curvature="0" />
    </g>
    <g
       id="g1319"
       transform="matrix(0.26458333,0,0,0.26458333,155.0976,8.902824)">
      <path
         id="path1978"
         style="fill:none;stroke:#ff0000;stroke-width:1"
         d="M 174.56878,87.284391 130.92659,162.87489 H 43.642196 L 0,87.284391 43.642196,11.693891 h 87.284394 z"
         inkscape:connector-curvature="0" />
      <path
         id="path1980"
         d="m 30.113281,35.126953 -2.037109,3.527344 c 13.196831,7.619194 28.203684,21.16725 43.638672,36.115234 2.038392,0.145602 4.086664,0.257797 6.142578,0.345703 C 61.586957,59.016517 45.453334,43.983537 30.113281,35.126953 Z m 46.669922,44.585938 c 9.253433,9.068102 18.60229,18.45037 27.761717,27.210939 0.27829,-1.48788 0.58041,-2.96828 0.88867,-4.44727 C 97.883259,95.166633 90.284887,87.492693 82.701172,79.921875 80.724419,79.8791 78.751536,79.811049 76.783203,79.712891 Z m 32.447267,26.417969 c -0.29657,1.47515 -0.58357,2.95126 -0.85156,4.43164 12.75079,12.00167 25.04557,22.51039 36.07617,28.87891 l 2.03711,-3.52735 c -12.03814,-6.95022 -24.56421,-17.70245 -37.26172,-29.7832 z"
         style="fill:none;stroke:#008000;stroke-width:1"
         inkscape:connector-curvature="0" />
      <path
         id="path1982"
         d="m 99.794922,11.693359 c 0,18.28815 -7.763655,41.634835 -19.488281,63.507813 1.731523,0.05465 3.465325,0.08961 5.201171,0.103516 C 96.709352,53.716877 103.86914,30.723443 103.86914,11.693359 Z M 80.291016,79.835938 c 0.803733,0.02613 1.605092,0.06852 2.410156,0.08594 0.07161,0.07148 0.143235,0.143342 0.214844,0.214844 0.03904,-0.07067 0.08019,-0.140228 0.11914,-0.210938 -0.9164,-0.01838 -1.829545,-0.05966 -2.74414,-0.08984 z m -2.847657,0.527343 C 72.030265,89.844898 65.905333,98.927467 59.398438,107.08789 A 7.5590553,7.5590553 0 0 0 56.75,106.59766 a 7.5590553,7.5590553 0 0 0 -4.462891,1.46875 c -4.789846,-2.93439 -10.258107,-4.50185 -16.332031,-4.38672 -6.766797,0.12826 -14.27973,2.33398 -22.425781,7.03711 l 2.037109,3.52734 c 13.797944,-7.96624 25.344819,-8.2028 34.251953,-3.0918 a 7.5590553,7.5590553 0 0 0 -0.626953,3.00391 7.5590553,7.5590553 0 0 0 0.935547,3.62695 c -7.206293,7.60064 -14.681039,13.87594 -22.050781,18.13086 l 2.037109,3.52735 c 7.851229,-4.53292 15.663155,-10.93847 23.111328,-18.60352 a 7.5590553,7.5590553 0 0 0 3.525391,0.87891 7.5590553,7.5590553 0 0 0 3.332031,-0.7793 c 6.910258,10.02811 10.619141,24.94816 10.619141,41.9375 h 4.072266 c 0,-17.94499 -4.184433,-33.73342 -11.763672,-44.48438 a 7.5590553,7.5590553 0 0 0 1.298828,-4.23437 7.5590553,7.5590553 0 0 0 -1.353516,-4.30078 c 6.493976,-7.99971 12.556565,-16.84729 17.914063,-26.113282 -1.141878,-1.125243 -2.28606,-2.260769 -3.425782,-3.378907 z"
         style="fill:none;stroke:#008000;stroke-width:1"
         inkscape:connector-curvature="0" />
      <path
         id="path1986"
         d="m 15.566406,60.324219 -2.037109,3.527343 C 37.101645,77.461064 75.01,82.444348 109.10938,78.824219 107.57084,77.443948 106.04983,76.047953 104.5625,74.628906 72.113914,77.212426 36.575976,72.454099 15.566406,60.324219 Z m 143.437504,0 c -12.33901,7.123928 -29.69984,11.6972 -48.49414,13.746093 1.47227,1.362164 2.95946,2.71063 4.47265,4.035157 17.53518,-2.409693 33.75366,-7.150779 46.05664,-14.253907 z"
         style="fill:none;stroke:#008000;stroke-width:1"
         inkscape:connector-curvature="0" />
      <path
         id="path1988"
         d="m 70.701172,11.693359 c 0,16.124173 7.178328,31.55313 18.117187,45.673829 0.681308,-1.622396 1.332426,-3.242552 1.958985,-4.859376 C 81.092393,39.53549 74.773438,25.675017 74.773438,11.693359 Z m 23.308594,44.947266 c -0.622187,1.579755 -1.269324,3.159247 -1.941407,4.738281 18.267181,21.783646 44.996301,40.198604 66.935551,52.865234 l 2.03515,-3.52734 C 139.80352,98.456453 112.20498,79.041258 94.009766,56.640625 Z"
         style="fill:none;stroke:#008000;stroke-width:1"
         inkscape:connector-curvature="0" />
      <path
         id="path1990"
         d="m 144.45508,35.126953 c -13.96579,8.063151 -23.73654,21.998607 -30.4961,38.535156 1.74697,-0.221553 3.47463,-0.470208 5.18946,-0.736328 6.39201,-14.875317 15.23421,-27.280041 27.34375,-34.271484 z m -31.50977,41.140625 c -0.002,0.0046 -0.004,0.0091 -0.006,0.01367 0.6796,0.609707 1.35545,1.222419 2.04297,1.824219 -0.6892,-0.603274 -1.35765,-1.225653 -2.03711,-1.837891 z m 2.03711,1.837891 c 0.52238,0.457249 1.05357,0.904854 1.58008,1.357422 0.20617,-0.561075 0.41072,-1.124126 0.62305,-1.679688 -0.73319,0.109686 -1.46508,0.220843 -2.20313,0.322266 z m -3.67578,2.677734 C 102.24404,107.03488 99.794922,138.26426 99.794922,162.875 h 4.074218 c 0,-22.68924 2.59161,-53.15104 11.13867,-78.933594 -1.24454,-1.040411 -2.48038,-2.092671 -3.70117,-3.158203 z"
         style="fill:none;stroke:#008000;stroke-width:1"
         inkscape:connector-curvature="0" />
    </g>
    <g
       id="g1355"
       transform="matrix(0.26458333,0,0,0.26458333,85.815618,248.90282)">
      <path
         id="path2022"
         style="fill:none;stroke:#ff0000;stroke-width:1"
         d="M 174.56878,87.284391 130.92659,162.87489 H 43.642196 L 0,87.284391 43.642196,11.693891 h 87.284394 z"
         inkscape:connector-curvature="0" />
      <path
         id="path2024"
         style="fill:none;stroke:#008000;stroke-width:1"
         d="m 159.00307,114.245 c -34.64102,-19.999997 -47.15178,1.66928 -12.51077,21.66928 l -2.03663,3.52756 c -37.2391,-21.5 -20.65506,-50.224394 16.58403,-28.72439"
         inkscape:connector-curvature="0" />
      <path
         id="path2026"
         style="fill:none;stroke:#008000;stroke-width:1"
         d="m 99.795154,162.87489 c 0,-40 -51.625057,-79.023554 -86.266073,-99.023554 l 2.036635,-3.527557 c 37.239093,21.5 88.302714,59.551111 88.302714,102.551111"
         inkscape:connector-curvature="0" />
      <path
         id="path2028"
         d="m 99.794922,11.693359 c 0,24.598829 -14.030086,58.346684 -32.884766,85.347657 1.145022,1.046682 2.275505,2.10542 3.390625,3.173824 C 89.834012,72.767942 103.86914,38.344738 103.86914,11.693359 Z M 64.285156,100.71094 c -1.75854,2.40329 -3.556204,4.73671 -5.380859,7.0039 a 7.5590553,7.5590553 0 0 0 -2.9375,-0.59375 7.5590553,7.5590553 0 0 0 -3.664063,0.95508 c -4.793312,-2.94048 -10.267369,-4.51173 -16.347656,-4.39648 -6.766797,0.12826 -14.27973,2.33398 -22.425781,7.03711 l 2.037109,3.52734 c 13.589005,-7.84562 24.990647,-8.18563 33.841797,-3.3125 a 7.5590553,7.5590553 0 0 0 -1.001953,3.74805 7.5590553,7.5590553 0 0 0 1.044922,3.8164 c -6.998077,7.28288 -14.235973,13.29626 -21.375,17.41797 l 2.037109,3.52735 c 7.641084,-4.41158 15.246872,-10.59362 22.515625,-17.98829 a 7.5590553,7.5590553 0 0 0 3.337891,0.78516 7.5590553,7.5590553 0 0 0 4.150391,-1.24414 c 6.886578,10.02747 10.583984,24.922 10.583984,41.88086 h 4.072266 c 0,-18.15528 -4.288485,-34.09663 -12.03711,-44.85352 a 7.5590553,7.5590553 0 0 0 0.789063,-3.34179 7.5590553,7.5590553 0 0 0 -1.1875,-4.0625 c 1.794574,-2.18541 3.560855,-4.42837 5.285156,-6.73633 -1.098165,-1.06695 -2.210541,-2.12377 -3.337891,-3.16992 z"
         style="fill:none;stroke:#008000;stroke-width:1"
         inkscape:connector-curvature="0" />
      <path
         id="path2032"
         style="fill:none;stroke:#008000;stroke-width:1"
         d="m 30.113115,35.126946 c 34.641016,20 40.587242,16.566945 40.587242,-23.433055 h 4.073271 c 0,43 -9.458057,48.460612 -46.697149,26.960612"
         inkscape:connector-curvature="0" />
      <path
         id="path2034"
         style="fill:none;stroke:#008000;stroke-width:1"
         d="m 146.4923,38.654503 c -34.64101,20 -22.13025,41.669276 12.51077,21.669276 l 2.03663,3.527557 c -37.23909,21.5 -53.82313,-7.22439 -16.58403,-28.72439"
         inkscape:connector-curvature="0" />
    </g>
    <g
       id="g1467"
       transform="matrix(0.26458333,0,0,0.26458333,16.533634,48.902963)">
      <path
         id="path3838"
         style="fill:none;stroke:#ff0000;stroke-width:1"
         d="M 174.56878,87.284391 130.92659,162.87489 H 43.642196 L 0,87.284391 43.642196,11.693891 h 87.284394 z"
         inkscape:connector-curvature="0" />
      <path
         id="path3840"
         d="m 144.45508,35.126953 c -22.20469,12.819879 -33.78879,40.486455 -39.53711,69.849607 a 7.5590553,7.5590553 0 0 0 -6.539064,7.48047 7.5590553,7.5590553 0 0 0 0.314453,2.13281 C 82.413258,125.21342 70.701172,142.68082 70.701172,162.875 h 4.072266 c 0,-18.74009 10.888852,-34.97512 26.021482,-44.89062 a 7.5590553,7.5590553 0 0 0 1.78906,1.23632 c -2.0602,15.26372 -2.789058,30.41932 -2.789058,43.6543 h 4.074218 c 0,-12.61426 0.80739,-27.63848 2.98242,-42.92383 a 7.5590553,7.5590553 0 0 0 6.64649,-7.49414 7.5590553,7.5590553 0 0 0 -0.0625,-0.90039 c 3.04545,-1.14222 6.17223,-2.04547 9.34179,-2.68945 -0.039,-1.36546 0.0154,-2.73703 0.15821,-4.11328 -3.73666,0.70706 -7.4181,1.76265 -10.9961,3.11523 a 7.5590553,7.5590553 0 0 0 -2.63281,-2.16992 c 5.74255,-28.352995 16.86311,-55.311763 37.18555,-67.044923 z m -9.4082,68.552737 c -2.71346,-0.0389 -5.43074,0.11886 -8.13086,0.45117 -0.17956,1.36491 -0.26129,2.72594 -0.23633,4.08008 10.98261,-1.4682 22.28169,0.23514 32.32422,6.0332 l 2.03515,-3.52734 c -8.14605,-4.70313 -17.05003,-6.90885 -25.99218,-7.03711 z"
         style="fill:none;stroke:#008000;stroke-width:1"
         inkscape:connector-curvature="0" />
      <path
         id="path3842"
         style="fill:none;stroke:#008000;stroke-width:1"
         d="m 28.076479,135.91428 c 34.641016,-20 71.718675,-84.220389 71.718675,-124.220389 h 4.073276 c 0,43 -36.516223,106.247949 -73.755315,127.747949"
         inkscape:connector-curvature="0" />
      <path
         id="path3844"
         style="fill:none;stroke:#008000;stroke-width:1"
         d="M 13.529081,110.71745 C 48.170097,90.717446 62.717495,58.654503 28.076479,38.654503 l 2.036636,-3.527557 c 37.239092,21.5 22.691694,57.618057 -14.547399,79.118054"
         inkscape:connector-curvature="0" />
      <path
         id="path3846"
         d="m 70.701172,11.693359 c 0,23.043018 -6.802519,42.310466 -19.191406,50.683594 0.208048,1.464728 0.306124,2.940581 0.294922,4.423828 14.569023,-8.557851 22.96875,-29.672393 22.96875,-55.107422 z m -55.134766,48.63086 -2.037109,3.527343 c 13.278165,7.666153 24.872048,8.695672 34.296875,4.904297 0.101585,-1.433062 0.08618,-2.859615 -0.04297,-4.277343 -8.606336,3.975585 -19.448812,3.217302 -32.216796,-4.154297 z"
         style="fill:none;stroke:#008000;stroke-width:1"
         inkscape:connector-curvature="0" />
      <path
         id="path3850"
         style="fill:none;stroke:#008000;stroke-width:1"
         d="m 161.0397,63.851336 c -34.64101,20 -49.18841,52.062944 -14.5474,72.062944 l -2.03663,3.52756 c -37.2391,-21.5 -22.6917,-57.618061 14.5474,-79.118061"
         inkscape:connector-curvature="0" />
    </g>
    <g
       id="g1487"
       transform="matrix(0.26458333,0,0,0.26458333,85.815618,88.902938)">
      <path
         id="path3860"
         style="fill:none;stroke:#ff0000;stroke-width:1"
         d="M 174.56878,87.284391 130.92659,162.87489 H 43.642196 L 0,87.284391 43.642196,11.693891 h 87.284394 z"
         inkscape:connector-curvature="0" />
      <path
         id="path3862"
         style="fill:none;stroke:#008000;stroke-width:1"
         d="m 159.00307,114.245 c -34.64102,-19.999997 -84.229442,8.62989 -84.229442,48.62989 h -4.073271 c 0,-43 53.100253,-73.657444 90.339343,-52.15744"
         inkscape:connector-curvature="0" />
      <path
         id="path3864"
         style="fill:none;stroke:#008000;stroke-width:1"
         d="m 144.45567,139.44184 c -34.64102,-20 -40.58724,-16.56695 -40.58724,23.43305 h -4.073276 c 0,-43 9.458056,-48.46061 46.697146,-26.96061"
         inkscape:connector-curvature="0" />
      <path
         id="path3866"
         style="fill:none;stroke:#008000;stroke-width:1"
         d="m 28.076479,135.91428 c 34.641016,-20 96.285571,-55.590501 130.926591,-75.590501 l 2.03663,3.527557 c -37.23909,21.5 -93.687493,54.090504 -130.926585,75.590504"
         inkscape:connector-curvature="0" />
      <path
         id="path3868"
         d="m 70.701172,11.693359 c 0,12.343078 -2.15222,24.591897 -6.136719,36.21875 1.480749,0.289316 2.96598,0.553156 4.457031,0.785157 3.764773,-11.683835 5.751954,-24.119245 5.751954,-37.003907 z m -7.6875,40.478516 C 53.627635,76.452978 36.16668,97.647097 13.529297,110.7168 l 2.037109,3.52734 C 40.247587,99.994455 58.21003,78.471304 67.525391,53.058594 66.017541,52.796676 64.514707,52.494073 63.013672,52.171875 Z"
         style="fill:none;stroke:#008000;stroke-width:1"
         inkscape:connector-curvature="0" />
      <path
         id="path3870"
         d="m 99.794922,11.693359 c 0,22.635509 -15.88079,41.627063 -35.945313,50.228516 -0.831146,1.791917 -1.70608,3.56022 -2.626953,5.304687 23.423319,-8.264508 42.646484,-29.662689 42.646484,-55.533203 z m -84.228516,48.63086 -2.037109,3.527343 c 12.83136,7.40819 27.545785,8.621383 41.322265,5.273438 0.936789,-1.607502 1.834885,-3.237137 2.695313,-4.886719 -13.820256,4.24879 -28.956168,3.605522 -41.980469,-3.914062 z"
         style="fill:none;stroke:#008000;stroke-width:1"
         inkscape:connector-curvature="0" />
      <path
         id="path3872"
         d="m 30.113281,35.126953 -2.037109,3.527344 c 15.48217,8.938635 32.123887,14.148145 48.958984,15.654297 1.797712,-1.344574 3.523214,-2.780898 5.16211,-4.304688 C 63.985697,49.224956 45.959042,44.275507 30.113281,35.126953 Z m 114.341799,0 c -17.17896,9.918279 -36.91926,14.911134 -56.681642,14.992188 -1.529359,1.602533 -3.147276,3.125074 -4.835938,4.570312 21.73453,0.822651 43.60525,-4.517346 63.55469,-16.035156 z"
         style="fill:none;stroke:#008000;stroke-width:1"
         inkscape:connector-curvature="0" />
    </g>
    <g
       id="g1541"
       transform="matrix(0.26458333,0,0,0.26458333,51.174931,28.902803)">
      <path
         id="path3926"
         style="fill:none;stroke:#ff0000;stroke-width:1"
         d="M 174.56878,87.284391 130.92659,162.87489 H 43.642196 L 0,87.284391 43.642196,11.693891 h 87.284394 z"
         inkscape:connector-curvature="0" />
      <path
         id="path3928"
         d="m 30.113281,35.126953 -2.037109,3.527344 c 9.769758,5.640572 20.53373,14.537376 31.726562,24.837891 1.448094,-0.506378 2.880797,-1.062337 4.291016,-1.673829 C 52.520725,51.005001 41.113042,41.477668 30.113281,35.126953 Z m 114.341799,0 C 127.35887,44.997456 109.28027,62.523587 91.121094,80.667969 A 7.5590553,7.5590553 0 0 0 87.46875,79.724609 7.5590553,7.5590553 0 0 0 83.578125,80.8125 C 78.111753,75.355393 72.650745,69.944734 67.222656,64.783203 c -1.36152,0.632013 -2.744305,1.215808 -4.142578,1.755859 5.836477,5.467111 11.779799,11.280065 17.740234,17.152344 a 7.5590553,7.5590553 0 0 0 -0.910156,3.59375 7.5590553,7.5590553 0 0 0 0.947266,3.644532 C 62.884993,108.87584 44.998183,126.14413 28.076172,135.91406 l 2.037109,3.52735 c 15.976762,-9.22419 34.605583,-27.13176 53.4375,-45.705082 a 7.5590553,7.5590553 0 0 0 3.917969,1.107422 7.5590553,7.5590553 0 0 0 3.689453,-0.972656 C 109.94212,112.39502 128.51813,130.2402 144.45508,139.44141 l 2.03711,-3.52735 c -16.84741,-9.72684 -34.6505,-26.89268 -52.542971,-44.753904 a 7.5590553,7.5590553 0 0 0 1.080078,-3.875 7.5590553,7.5590553 0 0 0 -1.054688,-3.832031 C 112.4928,65.205736 130.77546,47.728353 146.49219,38.654297 Z"
         style="fill:none;stroke:#008000;stroke-width:1"
         inkscape:connector-curvature="0" />
      <path
         id="path3930"
         style="fill:none;stroke:#008000;stroke-width:1"
         d="m 99.795154,162.87489 c 0,-40 -25.021526,-40 -25.021526,0 h -4.073271 c 0,-43 33.168073,-43 33.168073,0"
         inkscape:connector-curvature="0" />
      <path
         id="path3932"
         d="m 70.701172,11.693359 c 0,16.124651 -3.675937,32.083099 -10.31836,46.707032 1.188402,1.083462 2.378115,2.176069 3.570313,3.289062 C 70.998506,46.416132 74.773438,29.482084 74.773438,11.693359 Z M 58.509766,62.316406 c -0.32056,0.642445 -0.636637,1.287253 -0.96875,1.923828 0.755968,-0.232326 1.502703,-0.497878 2.25,-0.759765 -0.429319,-0.395064 -0.853226,-0.773236 -1.28125,-1.164063 z m 2.679687,0.664063 c -0.301498,0.113012 -0.603263,0.225447 -0.90625,0.333984 0.30302,-0.109037 0.604797,-0.220259 0.90625,-0.333984 z m 0.03906,4.242187 c -2.095185,0.739489 -4.221335,1.379304 -6.373047,1.902344 -9.951381,17.074156 -24.14724,31.67354 -41.326172,41.5918 l 2.037109,3.52734 C 35.515268,102.72666 51.07367,86.455913 61.228516,67.222656 Z"
         style="fill:none;stroke:#008000;stroke-width:1"
         inkscape:connector-curvature="0" />
      <path
         id="path3934"
         style="fill:none;stroke:#008000;stroke-width:1"
         d="m 15.565716,60.323779 c 34.641017,20 84.229438,-8.629888 84.229438,-48.629888 h 4.073276 c 0,43 -53.100257,73.657445 -90.339349,52.157445"
         inkscape:connector-curvature="0" />
      <path
         id="path3938"
         style="fill:none;stroke:#008000;stroke-width:1"
         d="m 161.0397,63.851336 c -34.64101,20 -34.64101,26.86611 0,46.866114 l -2.03663,3.52755 c -37.2391,-21.499997 -37.2391,-32.421221 0,-53.921221"
         inkscape:connector-curvature="0" />
    </g>
    <g
       id="g1577"
       transform="matrix(0.26458333,0,0,0.26458333,120.45661,188.90286)">
      <path
         id="path3970"
         style="fill:none;stroke:#ff0000;stroke-width:1"
         d="M 174.56878,87.284391 130.92659,162.87489 H 43.642196 L 0,87.284391 43.642196,11.693891 h 87.284394 z"
         inkscape:connector-curvature="0" />
      <path
         id="path3972"
         d="m 46.638672,102.52539 c -11.994203,0.0996 -23.290474,2.52246 -33.109375,8.19141 l 2.037109,3.52734 c 10.582809,-6.10999 23.496552,-7.99173 37.314453,-7.09961 0.701667,-1.41855 1.38378,-2.85955 2.035157,-4.33203 -1.970415,-0.1461 -3.928679,-0.24233 -5.869141,-0.27539 -0.805584,-0.0137 -1.60859,-0.0184 -2.408203,-0.0117 z m 12.958984,0.73633 c -0.628879,1.45164 -1.280452,2.88166 -1.958984,4.28711 13.783339,1.48371 28.287059,5.50181 42.15625,10.68359 v -4.6875 c -13.250905,-4.95454 -26.962928,-8.75504 -40.197266,-10.2832 z m 44.271484,11.8457 v 4.68555 c 15.04638,5.91509 29.17364,13.05954 40.58594,19.64844 l 2.03711,-3.52735 c -12.37858,-7.14678 -27.11002,-14.69383 -42.62305,-20.80664 z"
         style="fill:none;stroke:#008000;stroke-width:1"
         inkscape:connector-curvature="0" />
      <path
         id="path3974"
         d="m 99.794922,11.693359 v 92.974611 c 1.333328,-1.36969 2.686768,-2.72729 4.074218,-4.06445 V 11.693359 Z m 4.074218,95.244141 c -1.39031,1.41503 -2.74846,2.84655 -4.074218,4.29297 V 162.875 h 4.074218 z"
         style="fill:none;stroke:#008000;stroke-width:1"
         inkscape:connector-curvature="0" />
      <path
         id="path3976"
         style="fill:none;stroke:#008000;stroke-width:1"
         d="m 28.076479,135.91428 c 34.641016,-20 42.623878,-84.220389 42.623878,-124.220389 h 4.073271 c 0,43 -7.421421,106.247949 -44.660513,127.747949"
         inkscape:connector-curvature="0" />
      <path
         id="path3978"
         style="fill:none;stroke:#008000;stroke-width:1"
         d="m 15.565716,60.323779 c 34.641017,20 47.151779,-1.669276 12.510763,-21.669276 l 2.036636,-3.527557 c 37.239092,21.5 20.655058,50.22439 -16.584034,28.72439"
         inkscape:connector-curvature="0" />
      <path
         id="path3980"
         d="m 144.45508,35.126953 c -19.29902,11.142296 -24.68562,26.21159 -20.2168,41.136719 a 7.5590553,7.5590553 0 0 0 -2.34961,5.472656 7.5590553,7.5590553 0 0 0 0.5918,2.914063 c -10.43626,8.072259 -20.44613,17.034119 -28.832032,26.697269 1.526403,0.52229 3.043842,1.07585 4.560546,1.63086 7.985756,-8.97767 17.355806,-17.388501 27.019536,-24.974614 a 7.5590553,7.5590553 0 0 0 4.21875,1.291016 7.5590553,7.5590553 0 0 0 1.15039,-0.09375 c 6.30026,9.239432 16.1039,17.940208 28.40625,25.042968 l 2.03515,-3.52734 C 149.50028,104.05488 140.21164,96.052579 134.20703,87.605469 a 7.5590553,7.5590553 0 0 0 2.79883,-5.869141 7.5590553,7.5590553 0 0 0 -0.34766,-2.240234 c 8.4596,-5.990424 16.82351,-11.281293 24.38086,-15.644532 l -2.03515,-3.527343 c -7.81945,4.514557 -16.24655,9.768888 -24.68164,15.636719 a 7.5590553,7.5590553 0 0 0 -4.875,-1.783204 7.5590553,7.5590553 0 0 0 -1.73829,0.210938 c -3.47816,-12.916519 1.5945,-25.810471 18.78321,-35.734375 z M 90.572266,115.01758 C 78.663703,129.72738 70.701172,145.91291 70.701172,162.875 h 4.072266 c 0,-15.98105 8.25386,-31.8019 20.359374,-46.32031 -1.514998,-0.53108 -3.035927,-1.03863 -4.560546,-1.53711 z"
         style="fill:none;stroke:#008000;stroke-width:1"
         inkscape:connector-curvature="0" />
    </g>
    <g
       id="g1595"
       transform="matrix(0.26458333,0,0,0.26458333,120.45661,28.90298)">
      <path
         id="path3992"
         style="fill:none;stroke:#ff0000;stroke-width:1"
         d="M 174.56878,87.284391 130.92659,162.87489 H 43.642196 L 0,87.284391 43.642196,11.693891 h 87.284394 z"
         inkscape:connector-curvature="0" />
      <path
         id="path3994"
         style="fill:none;stroke:#008000;stroke-width:1"
         d="m 99.795154,162.87489 c 0,-40 -25.021526,-40 -25.021526,0 h -4.073271 c 0,-43 33.168073,-43 33.168073,0"
         inkscape:connector-curvature="0" />
      <path
         id="path3996"
         style="fill:none;stroke:#008000;stroke-width:1"
         d="m 28.076479,135.91428 c 34.641016,-20 22.130254,-41.669277 -12.510763,-21.66928 l -2.036635,-3.52755 c 37.239092,-21.500004 53.823126,7.22439 16.584034,28.72439"
         inkscape:connector-curvature="0" />
      <path
         id="path3998"
         d="m 70.701172,11.693359 c 0,14.562847 4.42545,24.815339 11.720703,31.177735 a 7.5590553,7.5590553 0 0 0 -0.476563,2.621094 7.5590553,7.5590553 0 0 0 1.023438,3.779296 C 65.433076,66.149299 37.504212,72.990017 15.566406,60.324219 l -2.037109,3.527343 c 23.569107,13.607631 53.477757,6.309566 72.269531,-11.77539 a 7.5590553,7.5590553 0 0 0 3.705078,0.974609 7.5590553,7.5590553 0 0 0 6.292969,-3.380859 c 14.148655,3.521994 32.577095,-0.555068 50.695315,-11.015625 l -2.03711,-3.527344 C 127.31278,45.024062 110.08053,49.171133 97.037109,46 A 7.5590553,7.5590553 0 0 0 97.0625,45.492188 7.5590553,7.5590553 0 0 0 95.244141,40.587891 C 100.6458,32.09707 103.86914,22.271494 103.86914,11.693359 h -4.074218 c 0,9.73362 -2.946839,18.787238 -7.890625,26.636719 a 7.5590553,7.5590553 0 0 0 -2.400391,-0.398437 7.5590553,7.5590553 0 0 0 -4.763672,1.695312 C 78.507848,33.905545 74.773438,24.747584 74.773438,11.693359 Z"
         style="fill:none;stroke:#008000;stroke-width:1"
         inkscape:connector-curvature="0" />
      <path
         id="path4000"
         d="m 30.113281,35.126953 -2.037109,3.527344 C 38.421807,44.627352 49.1288,53.405492 59.994141,63.423828 61.318342,62.955953 62.629423,62.446574 63.921875,61.890625 51.982243,50.775663 40.487687,41.116619 30.113281,35.126953 Z m 36.955078,29.724609 c -1.252915,0.577859 -2.522653,1.117026 -3.80664,1.617188 27.232214,25.623776 55.335091,58.04338 81.193361,72.97266 l 2.03711,-3.52735 C 123.13251,122.42734 94.117273,90.418582 67.068359,64.851562 Z"
         style="fill:none;stroke:#008000;stroke-width:1"
         inkscape:connector-curvature="0" />
      <path
         id="path4004"
         style="fill:none;stroke:#008000;stroke-width:1"
         d="m 161.0397,63.851336 c -34.64101,20 -34.64101,26.86611 0,46.866114 l -2.03663,3.52755 c -37.2391,-21.499997 -37.2391,-32.421221 0,-53.921221"
         inkscape:connector-curvature="0" />
    </g>
    <g
       id="g1669"
       transform="matrix(0.26458333,0,0,0.26458333,120.45661,228.903)">
      <path
         id="path4080"
         style="fill:none;stroke:#ff0000;stroke-width:1"
         d="M 174.56878,87.284391 130.92659,162.87489 H 43.642196 L 0,87.284391 43.642196,11.693891 h 87.284394 z"
         inkscape:connector-curvature="0" />
      <path
         id="path4082"
         d="m 135.04688,103.67969 c -10.75831,-0.15431 -21.56902,2.70323 -31.17774,7.84179 v 4.55664 c 16.73198,-9.67201 37.80405,-11.83987 55.13477,-1.83398 l 2.03515,-3.52734 c -8.14605,-4.70313 -17.05003,-6.90885 -25.99218,-7.03711 z M 99.794922,113.88477 C 82.944927,124.4329 70.701172,142.22868 70.701172,162.875 h 4.072266 c 0,-18.3251 10.411423,-34.25876 25.021484,-44.22852 z"
         style="fill:none;stroke:#008000;stroke-width:1"
         inkscape:connector-curvature="0" />
      <path
         id="path4084"
         d="m 15.566406,60.324219 -2.037109,3.527343 86.265625,49.804688 v -4.70313 z m 88.302734,50.982421 v 0.21484 c 0.0652,-0.0349 0.13191,-0.0669 0.19727,-0.10156 z m 4.32031,2.49414 c -1.44613,0.69574 -2.86878,1.44206 -4.25976,2.24414 l 40.52539,23.39649 2.03711,-3.52735 z"
         style="fill:none;stroke:#008000;stroke-width:1"
         inkscape:connector-curvature="0" />
      <path
         id="path4086"
         style="fill:none;stroke:#008000;stroke-width:1"
         d="m 28.076479,135.91428 c 34.641016,-20 22.130254,-41.669277 -12.510763,-21.66928 l -2.036635,-3.52755 c 37.239092,-21.500004 53.823126,7.22439 16.584034,28.72439"
         inkscape:connector-curvature="0" />
      <path
         id="path4088"
         d="m 30.113281,35.126953 -2.037109,3.527344 c 22.450234,12.961649 47.334813,18.096349 71.71875,15.429687 V 49.453125 C 75.829266,51.990239 51.066355,47.224216 30.113281,35.126953 Z m 114.341799,0 c -12.498,7.21572 -26.35405,11.813207 -40.58594,13.822266 V 53.5625 c 14.6634,-2.133501 29.0864,-7.092815 42.62305,-14.908203 z"
         style="fill:none;stroke:#008000;stroke-width:1"
         inkscape:connector-curvature="0" />
      <path
         id="path4090"
         d="m 70.701172,11.693359 c 0,14.810083 6.29955,28.155077 16.080078,38.410157 1.857389,0.0075 3.714636,-0.03789 5.570312,-0.117188 C 81.774722,40.143967 74.773438,26.72164 74.773438,11.693359 Z m 26.804687,42.595703 c -1.963389,0.175235 -3.929332,0.306573 -5.896484,0.38086 18.869015,16.163143 47.018915,22.120508 69.429685,9.18164 l -2.03515,-3.527343 c -19.61247,11.323262 -44.01493,7.055455 -61.498051,-6.035157 z"
         style="fill:none;stroke:#008000;stroke-width:1"
         inkscape:connector-curvature="0" />
      <path
         id="path4092"
         d="m 99.794922,11.693359 v 44.22461 c 1.324988,0.904247 2.684728,1.759085 4.074218,2.5625 v -46.78711 z m 0,48.978516 V 162.875 h 4.074218 V 63.033203 c -1.38429,-0.740698 -2.74363,-1.528024 -4.074218,-2.361328 z"
         style="fill:none;stroke:#008000;stroke-width:1"
         inkscape:connector-curvature="0" />
    </g>
    <g
       id="g1687"
       transform="matrix(0.26458333,0,0,0.26458333,16.533634,208.90302)">
      <path
         id="path4102"
         style="fill:none;stroke:#ff0000;stroke-width:1"
         d="M 174.56878,87.284391 130.92659,162.87489 H 43.642196 L 0,87.284391 43.642196,11.693891 h 87.284394 z"
         inkscape:connector-curvature="0" />
      <path
         id="path4104"
         d="m 15.566406,60.324219 -2.037109,3.527343 C 23.021693,69.332 33.788614,76.248858 44.419922,84.214844 45.321579,83.105707 46.201696,81.979278 47.0625,80.837891 36.39968,72.973795 25.493621,66.055699 15.566406,60.324219 Z m 35.16211,23.263672 c -0.876753,1.142075 -1.778309,2.265851 -2.699219,3.376953 26.835347,20.797036 51.765625,48.114516 51.765625,75.910156 h 4.074218 c 0,-30.21857 -25.223936,-57.98351 -53.140624,-79.287109 z"
         style="fill:none;stroke:#008000;stroke-width:1"
         inkscape:connector-curvature="0" />
      <path
         id="path4106"
         style="fill:none;stroke:#008000;stroke-width:1"
         d="m 70.700357,162.87489 c 0,-40 -5.946226,-43.43305 -40.587242,-23.43305 l -2.036636,-3.52756 c 37.239092,-21.5 46.697149,-16.03939 46.697149,26.96061"
         inkscape:connector-curvature="0" />
      <path
         id="path4108"
         d="m 70.701172,11.693359 c 0,12.347213 -2.153559,24.600139 -6.140625,36.230469 1.480647,0.289868 2.966076,0.552684 4.457031,0.785156 3.767237,-11.687244 5.75586,-24.126643 5.75586,-37.015625 z M 63.011719,52.177734 C 53.625147,76.456433 36.164893,97.648129 13.529297,110.7168 l 2.037109,3.52734 C 40.247027,99.994777 58.209849,78.472505 67.525391,53.060547 66.01748,52.798245 64.512798,52.500438 63.011719,52.177734 Z"
         style="fill:none;stroke:#008000;stroke-width:1"
         inkscape:connector-curvature="0" />
      <path
         id="path4110"
         d="m 99.794922,11.693359 c 0,10.078125 0.417798,21.272886 1.521488,32.777344 a 7.5590553,7.5590553 0 0 0 -4.380863,5.253906 C 73.86806,51.603329 50.233982,46.743645 30.113281,35.126953 l -2.037109,3.527344 C 49.771864,51.18031 73.740263,56.401675 97.333984,54.332031 a 7.5590553,7.5590553 0 0 0 5.732426,4.527344 c 4.93334,33.170291 16.49062,66.207135 41.38867,80.582035 l 2.03711,-3.52735 C 123.65116,122.72679 112.40344,90.315104 107.38867,58.296875 a 7.5590553,7.5590553 0 0 0 4.43164,-6.164063 c 11.91537,-2.589284 23.58982,-7.080284 34.67188,-13.478515 l -2.03711,-3.527344 c -10.42997,6.021741 -21.80436,10.226123 -33.55469,12.621094 a 7.5590553,7.5590553 0 0 0 -5.36523,-3.787109 C 104.34032,32.43676 103.86914,21.355677 103.86914,11.693359 Z"
         style="fill:none;stroke:#008000;stroke-width:1"
         inkscape:connector-curvature="0" />
      <path
         id="path4114"
         style="fill:none;stroke:#008000;stroke-width:1"
         d="m 161.0397,63.851336 c -34.64101,20 -34.64101,26.86611 0,46.866114 l -2.03663,3.52755 c -37.2391,-21.499997 -37.2391,-32.421221 0,-53.921221"
         inkscape:connector-curvature="0" />
    </g>
    <g
       id="g1705"
       transform="matrix(0.26458333,0,0,0.26458333,16.533634,128.90291)">
      <path
         id="path4821"
         style="fill:none;stroke:#ff0000;stroke-width:1"
         d="M 174.56878,87.284391 130.92659,162.87489 H 43.642196 L 0,87.284391 43.642196,11.693891 h 87.284394 z"
         inkscape:connector-curvature="0" />
      <path
         id="path4823"
         d="m 30.113281,35.126953 -2.037109,3.527344 42.625,24.609375 v -4.703125 z m 44.660157,25.785156 v 4.703125 l 84.230472,48.628906 2.03515,-3.52734 z"
         style="fill:none;stroke:#008000;stroke-width:1"
         inkscape:connector-curvature="0" />
      <path
         id="path4825"
         d="M 70.701172,11.693359 V 92.15625 l 4.072266,2.351562 V 11.693359 Z m 0,85.166016 V 162.875 h 4.072266 V 99.210938 Z"
         style="fill:none;stroke:#008000;stroke-width:1"
         inkscape:connector-curvature="0" />
      <path
         id="path4827"
         style="fill:none;stroke:#008000;stroke-width:1"
         d="m 28.076479,135.91428 c 34.641016,-20 22.130254,-41.669277 -12.510763,-21.66928 l -2.036635,-3.52755 c 37.239092,-21.500004 53.823126,7.22439 16.584034,28.72439"
         inkscape:connector-curvature="0" />
      <path
         id="path4829"
         d="m 15.566406,60.324219 -2.037109,3.527343 89.558593,51.707028 c 0.21486,-1.43705 0.44716,-2.87169 0.6875,-4.30664 z M 107.83594,113.5957 c -0.24088,1.4361 -0.47181,2.87171 -0.6875,4.30664 l 37.30664,21.53907 2.03711,-3.52735 z"
         style="fill:none;stroke:#008000;stroke-width:1"
         inkscape:connector-curvature="0" />
      <path
         id="path4831"
         d="m 99.794922,11.693359 c 0,19.952811 5.170238,37.246437 14.431638,47.90625 a 7.5590553,7.5590553 0 0 0 -0.97851,3.710938 7.5590553,7.5590553 0 0 0 2.70507,5.792969 c -1.86044,4.065264 -3.53172,8.305426 -5.00976,12.691406 l 3.98828,2.300781 c 1.51723,-4.595828 3.23182,-9.034216 5.14648,-13.263672 a 7.5590553,7.5590553 0 0 0 0.72852,0.03711 7.5590553,7.5590553 0 0 0 5.44141,-2.322266 c 9.51243,4.032474 21.27827,3.106274 34.79101,-4.695313 l -2.03515,-3.527343 c -12.10347,6.987933 -22.47126,8.021521 -30.84961,4.724609 a 7.5590553,7.5590553 0 0 0 0.21289,-1.738281 7.5590553,7.5590553 0 0 0 -1.69141,-4.759766 c 5.3599,-8.398921 11.88264,-15.315924 19.81641,-19.896484 l -2.03711,-3.527344 c -8.64764,4.992714 -15.6721,12.252731 -21.38281,20.972656 A 7.5590553,7.5590553 0 0 0 120.80664,55.75 a 7.5590553,7.5590553 0 0 0 -3.88281,1.083984 c -8.478,-9.892708 -13.05469,-26.244393 -13.05469,-45.140625 z m 9.874998,74.06836 C 101.93918,110.91373 99.794922,139.80548 99.794922,162.875 h 4.074218 c 0,-21.4827 2.31038,-49.94614 9.80859,-74.798828 z"
         style="fill:none;stroke:#008000;stroke-width:1"
         inkscape:connector-curvature="0" />
    </g>
    <g
       id="g1743"
       transform="matrix(0.26458333,0,0,0.26458333,120.45661,148.90289)">
      <path
         id="path4865"
         style="fill:none;stroke:#ff0000;stroke-width:1"
         d="M 174.56878,87.284391 130.92659,162.87489 H 43.642196 L 0,87.284391 43.642196,11.693891 h 87.284394 z"
         inkscape:connector-curvature="0" />
      <path
         id="path4867"
         style="fill:none;stroke:#008000;stroke-width:1"
         d="m 99.795154,162.87489 c 0,-40 -25.021526,-40 -25.021526,0 h -4.073271 c 0,-43 33.168073,-43 33.168073,0"
         inkscape:connector-curvature="0" />
      <path
         id="path4869"
         d="m 30.113281,35.126953 -2.037109,3.527344 c 16.009201,9.242917 24.614142,26.444754 25.826172,44.248047 1.251282,-1.028972 2.493819,-2.07138 3.726562,-3.126953 C 55.646111,61.708837 46.476644,44.574345 30.113281,35.126953 Z m 27.896485,50.089844 c -1.313289,1.079698 -2.636292,2.144442 -3.96875,3.195312 -0.330351,18.935791 -8.98124,37.696461 -25.964844,47.501951 l 2.037109,3.52735 C 49.352782,128.33348 58.650362,106.59847 58.009766,85.216797 Z"
         style="fill:none;stroke:#008000;stroke-width:1"
         inkscape:connector-curvature="0" />
      <path
         id="path4871"
         d="m 99.794922,11.693359 c 0,18.286565 -10.802383,36.363511 -25.826172,52.517579 2.600754,-0.597277 5.207106,-1.268224 7.8125,-1.992188 13.128757,-15.410499 22.08789,-32.531504 22.08789,-50.525391 z m -23.466797,56.59375 c -2.665432,0.638762 -5.325264,1.200916 -7.976563,1.689453 C 51.338122,86.682714 30.420638,100.96458 13.529297,110.7168 l 2.037109,3.52734 C 35.145869,102.93993 58.53659,87.055805 76.328125,68.287109 Z"
         style="fill:none;stroke:#008000;stroke-width:1"
         inkscape:connector-curvature="0" />
      <path
         id="path4873"
         d="m 144.45508,35.126953 c -15.56715,8.987697 -36.17734,19.012043 -57.296877,25.525391 0.604226,1.369675 1.231257,2.737649 1.871094,4.105468 20.847923,-6.601827 41.185013,-16.70548 57.462893,-26.103515 z M 15.566406,60.324219 13.529297,63.851562 c 11.313377,6.531782 24.58929,8.748082 38.632812,8.072266 -0.369045,-1.48126 -0.791205,-2.945578 -1.269531,-4.390625 -13.067645,0.592674 -25.25279,-1.393115 -35.326172,-7.208984 z m 67.175782,1.634765 c -9.334219,2.64589 -18.703326,4.538527 -27.72461,5.300782 0.450867,1.449053 0.845858,2.915839 1.195313,4.396484 9.287827,-0.797283 18.855525,-2.779376 28.371093,-5.548828 -0.631048,-1.380938 -1.247248,-2.763668 -1.841796,-4.148438 z"
         style="fill:none;stroke:#008000;stroke-width:1"
         inkscape:connector-curvature="0" />
      <path
         id="path4875"
         d="m 70.701172,11.693359 c 0,13.612524 3.668055,29.254954 9.851562,44.958985 1.112211,-1.368995 2.194194,-2.746322 3.232422,-4.136719 C 78.148166,37.959198 74.773438,23.72868 74.773438,11.693359 Z M 85.744141,57.375 c -1.046858,1.351148 -2.139272,2.685055 -3.251953,4.011719 13.74852,32.309232 37.697472,64.045041 61.962892,78.054691 l 2.03711,-3.52735 C 123.43186,122.60018 99.307273,89.691171 85.744141,57.375 Z"
         style="fill:none;stroke:#008000;stroke-width:1"
         inkscape:connector-curvature="0" />
      <path
         id="path4877"
         style="fill:none;stroke:#008000;stroke-width:1"
         d="m 161.0397,63.851336 c -34.64101,20 -34.64101,26.86611 0,46.866114 l -2.03663,3.52755 c -37.2391,-21.499997 -37.2391,-32.421221 0,-53.921221"
         inkscape:connector-curvature="0" />
    </g>
    <g
       id="g1779"
       transform="matrix(0.26458333,0,0,0.26458333,16.533634,168.90288)">
      <path
         id="path4909"
         style="fill:none;stroke:#ff0000;stroke-width:1"
         d="M 174.56878,87.284391 130.92659,162.87489 H 43.642196 L 0,87.284391 43.642196,11.693891 h 87.284394 z"
         inkscape:connector-curvature="0" />
      <path
         id="path4911"
         d="m 135.04688,103.67969 c -4.04413,-0.058 -8.09536,0.31444 -12.0879,1.06836 0.37238,1.29608 0.78426,2.57905 1.24219,3.84375 11.74972,-2.08883 24.00311,-0.58283 34.80274,5.65234 l 2.03515,-3.52734 c -8.14605,-4.70313 -17.05003,-6.90885 -25.99218,-7.03711 z m -16,1.93554 c -25.92244,6.59321 -48.345708,29.3172 -48.345708,57.25977 h 4.072266 c 0,-26.12115 21.147182,-47.39001 45.468752,-53.4375 -0.4408,-1.25934 -0.83314,-2.53502 -1.19531,-3.82227 z"
         style="fill:none;stroke:#008000;stroke-width:1"
         inkscape:connector-curvature="0" />
      <path
         id="path4913"
         d="m 70.701172,11.693359 c 0,17.251652 -3.829927,32.359738 -10.947266,42.388672 A 7.5590553,7.5590553 0 0 0 56.771484,53.466797 7.5590553,7.5590553 0 0 0 53.65625,54.150391 C 46.079142,46.292763 38.113376,39.74581 30.113281,35.126953 l -2.037109,3.527344 c 7.45122,4.301963 15.014445,10.652706 22.296875,18.365234 a 7.5590553,7.5590553 0 0 0 -1.160156,4.00586 7.5590553,7.5590553 0 0 0 0.429687,2.484375 c -8.883621,5.009247 -20.36719,4.729337 -34.076172,-3.185547 l -2.037109,3.527343 c 15.238969,8.798223 28.257907,8.854981 38.326172,2.91211 a 7.5590553,7.5590553 0 0 0 4.916015,1.820312 7.5590553,7.5590553 0 0 0 3.019532,-0.638672 C 72.148003,83.539709 83.078282,102.48534 90.375,120.98242 c 1.176868,-1.05905 2.395281,-2.07548 3.646484,-3.05078 C 86.675426,99.27017 75.764361,80.526957 63.197266,64.988281 a 7.5590553,7.5590553 0 0 0 1.132812,-3.96289 7.5590553,7.5590553 0 0 0 -1.533203,-4.554688 C 70.508726,45.714487 74.773437,29.803271 74.773438,11.693359 Z M 95.505859,121.84766 c -1.239043,1.0074 -2.438315,2.05974 -3.59375,3.15625 4.963456,13.52239 7.882813,26.64989 7.882813,37.87109 h 4.074218 c 0,-12.4756 -3.08988,-26.65704 -8.363281,-41.02734 z"
         style="fill:none;stroke:#008000;stroke-width:1"
         inkscape:connector-curvature="0" />
      <path
         id="path4915"
         style="fill:none;stroke:#008000;stroke-width:1"
         d="m 28.076479,135.91428 c 34.641016,-20 22.130254,-41.669277 -12.510763,-21.66928 l -2.036635,-3.52755 c 37.239092,-21.500004 53.823126,7.22439 16.584034,28.72439"
         inkscape:connector-curvature="0" />
      <path
         id="path4919"
         style="fill:none;stroke:#008000;stroke-width:1"
         d="m 103.86843,11.693891 c 0,40 20.49362,68.629888 55.13464,48.629888 l 2.03663,3.527557 c -37.23909,21.5 -61.244546,-9.157445 -61.244546,-52.157445"
         inkscape:connector-curvature="0" />
      <path
         id="path4921"
         d="m 144.45508,35.126953 c -10.61822,6.130433 -18.20269,15.499266 -22.76563,26.257813 1.09261,0.838216 2.23043,1.590487 3.41602,2.246093 4.21979,-10.245486 11.34406,-19.178431 21.38672,-24.976562 z m -24.2168,30.015625 c -9.2533,26.443584 -1.18534,59.632902 24.2168,74.298832 l 2.03711,-3.52735 c -23.40407,-13.51234 -30.98985,-44.029913 -22.76953,-68.576169 -1.20236,-0.649097 -2.36363,-1.383277 -3.48438,-2.195313 z"
         style="fill:none;stroke:#008000;stroke-width:1"
         inkscape:connector-curvature="0" />
    </g>
    <g
       id="g1889"
       transform="matrix(0.26458333,0,0,0.26458333,51.174626,108.90292)">
      <path
         id="path5041"
         style="fill:none;stroke:#ff0000;stroke-width:1"
         d="M 174.56878,87.284391 130.92659,162.87489 H 43.642196 L 0,87.284391 43.642196,11.693891 h 87.284394 z"
         inkscape:connector-curvature="0" />
      <path
         id="path5043"
         d="m 15.566406,60.324219 -2.037109,3.527343 c 12.497694,7.215547 23.407945,16.916031 32.263672,28.236329 l 3.99414,-2.304688 C 40.607809,78.151295 29.102855,68.139491 15.566406,60.324219 Z m 36.708985,32.724609 -4.009766,2.316406 C 62.445834,114.85162 70.701172,138.68031 70.701172,162.875 h 4.072266 c 0,-25.92408 -7.995848,-50.04206 -22.498047,-69.826172 z"
         style="fill:none;stroke:#008000;stroke-width:1"
         inkscape:connector-curvature="0" />
      <path
         id="path5045"
         d="m 70.701172,11.693359 c 0,15.199103 -1.173162,33.890495 -4.50586,52.326172 1.266254,1.192161 2.54385,2.421429 3.81836,3.640625 3.605154,-19.281938 4.759766,-39.165991 4.759766,-55.966797 z m -5.353516,56.763672 c -2.141799,10.664665 -5.0269,21.145072 -8.890625,30.699219 0.993207,1.55548 1.956231,3.12964 2.873047,4.73047 4.316013,-9.809955 7.482809,-20.651884 9.802734,-31.787111 -1.263019,-1.222963 -2.525218,-2.443604 -3.785156,-3.642578 z M 54.205078,104.35742 c -6.28541,13.66101 -14.765844,24.99618 -26.128906,31.55664 l 2.037109,3.52735 c 11.594902,-6.69432 20.295693,-17.43785 26.785157,-30.35547 -0.858163,-1.59878 -1.763026,-3.1706 -2.69336,-4.72852 z"
         style="fill:none;stroke:#008000;stroke-width:1"
         inkscape:connector-curvature="0" />
      <path
         id="path5047"
         d="m 30.113281,35.126953 -2.037109,3.527344 c 12.04051,6.951592 24.571401,17.717168 37.271484,29.802734 1.259938,1.198974 2.522138,2.419615 3.785156,3.642578 1.395215,1.350966 2.793244,2.719829 4.191407,4.09375 l 3.435547,-1.984375 C 74.506211,72.010162 72.248658,69.798145 70.013672,67.660156 68.739162,66.44096 67.461568,65.211692 66.195312,64.019531 53.442629,52.013045 41.144235,41.495677 30.113281,35.126953 Z m 49.685547,42.03125 -3.46875,2.003906 C 99.391551,102.00346 122.71557,126.8901 144.45508,139.44141 l 2.03711,-3.52735 C 126.76327,124.52357 103.00402,99.932128 79.798828,77.158203 Z"
         style="fill:none;stroke:#008000;stroke-width:1"
         inkscape:connector-curvature="0" />
      <path
         id="path5049"
         d="m 99.794922,11.693359 v 43.042969 a 7.5590553,7.5590553 0 0 0 -5.425781,7.246094 7.5590553,7.5590553 0 0 0 0.251953,1.916016 L 67.421875,79.601562 c -0.462333,1.859252 -0.934254,3.712018 -1.451172,5.541016 L 96.681641,67.414062 a 7.5590553,7.5590553 0 0 0 3.113281,1.816407 v 27.601562 c 1.360538,1.32731 2.719868,2.646084 4.074218,3.953129 V 69.285156 a 7.5590553,7.5590553 0 0 0 5.61914,-7.302734 7.5590553,7.5590553 0 0 0 -0.23242,-1.830078 l 37.23633,-21.498047 -2.03711,-3.527344 -37.21485,21.486328 A 7.5590553,7.5590553 0 0 0 103.86914,54.6875 V 11.693359 Z M 61.96875,82.75 l -48.439453,27.9668 2.037109,3.52734 44.72461,-25.822265 C 60.880342,86.552509 61.438706,84.659444 61.96875,82.75 Z m 37.826172,19.75781 V 162.875 h 4.074218 v -56.38867 c -1.35592,-1.30953 -2.71539,-2.64633 -4.074218,-3.97852 z"
         style="fill:none;stroke:#008000;stroke-width:1"
         inkscape:connector-curvature="0" />
      <path
         id="path5053"
         style="fill:none;stroke:#008000;stroke-width:1"
         d="m 161.0397,63.851336 c -34.64101,20 -34.64101,26.86611 0,46.866114 l -2.03663,3.52755 c -37.2391,-21.499997 -37.2391,-32.421221 0,-53.921221"
         inkscape:connector-curvature="0" />
    </g>
    <g
       id="g1963"
       transform="matrix(0.26458333,0,0,0.26458333,51.174626,68.902949)">
      <path
         id="path5129"
         style="fill:none;stroke:#ff0000;stroke-width:1"
         d="M 174.56878,87.284391 130.92659,162.87489 H 43.642196 L 0,87.284391 43.642196,11.693891 h 87.284394 z"
         inkscape:connector-curvature="0" />
      <path
         id="path5131"
         d="m 30.113281,35.126953 -2.037109,3.527344 59.958984,34.617187 c -1.094775,-2.167463 -2.155226,-4.344397 -3.164062,-6.53125 z m 61.884766,35.728516 c 0.737027,1.452156 1.489213,2.900562 2.261719,4.341797 0.833509,-0.02635 1.662818,-0.07218 2.49414,-0.109375 0.315602,-0.312224 0.631318,-0.625062 0.947266,-0.939453 z m 2.087891,4.349609 c -0.433257,0.01246 -0.867063,0.01827 -1.300782,0.02539 0.433463,-0.01081 0.867695,-0.01204 1.300782,-0.02539 z m 12.185542,3.890625 c -0.80032,0.07334 -1.59865,0.152817 -2.40234,0.216797 v 3.099609 l 55.13477,31.832031 2.03515,-3.52734 z m -6.476558,0.494141 c -0.250587,0.01493 -0.503099,0.02112 -0.753906,0.03516 l 0.753906,0.435547 z"
         style="fill:none;stroke:#008000;stroke-width:1"
         inkscape:connector-curvature="0" />
      <path
         id="path5133"
         d="m 99.794922,11.693359 v 63.261719 4.634766 5.322265 c 1.321698,2.192512 2.684468,4.353083 4.074218,6.486329 V 79.3125 74.685547 11.693359 Z m 0,81.966797 V 162.875 h 4.074218 V 99.630859 c -1.3848,-1.960925 -2.74883,-3.945392 -4.074218,-5.970703 z"
         style="fill:none;stroke:#008000;stroke-width:1"
         inkscape:connector-curvature="0" />
      <path
         id="path5135"
         d="m 144.45508,35.126953 c -13.08657,7.555534 -26.75256,19.623633 -40.58594,32.992188 v 5.666015 C 118.9466,59.22748 133.5847,46.106436 146.49219,38.654297 Z M 99.794922,72.072266 c -1.011889,0.992656 -2.027889,2.013342 -3.041016,3.015625 1.013971,-0.04362 2.030781,-0.07519 3.041016,-0.132813 z m -1.958984,7.607422 c -1.971227,0.09887 -3.946078,0.169459 -5.925782,0.21289 -0.0072,0.0071 -0.01433,0.01434 -0.02148,0.02148 1.629887,-0.0354 3.258218,-0.08511 4.882812,-0.158203 0.117673,0.207638 0.241025,0.411865 0.359375,0.619141 0.234618,-0.230167 0.470583,-0.465546 0.705079,-0.695312 z m -6.177735,0.464843 c -9.880884,9.8656 -19.786443,19.920829 -29.574219,29.062499 a 7.5590553,7.5590553 0 0 0 -4.02539,-1.16992 7.5590553,7.5590553 0 0 0 -4.041016,1.17187 c -5.187861,-3.66715 -11.243657,-5.65854 -18.0625,-5.52929 -6.766797,0.12826 -14.27973,2.33398 -22.425781,7.03711 l 2.037109,3.52734 c 14.606646,-8.43315 26.695081,-8.21288 35.794922,-2.14648 a 7.5590553,7.5590553 0 0 0 -0.863281,3.49804 7.5590553,7.5590553 0 0 0 0.779297,3.32813 c -7.874024,6.75351 -15.633395,12.62098 -23.201172,16.99023 l 2.037109,3.52735 c 7.402573,-4.27388 15.377483,-10.41785 23.671875,-17.61133 a 7.5590553,7.5590553 0 0 0 4.273438,1.32422 7.5590553,7.5590553 0 0 0 3.05664,-0.65625 c 6.246424,9.98744 9.585938,24.25123 9.585938,40.37695 h 4.072266 c 0,-17.0313 -3.771746,-32.11844 -10.634766,-42.80273 a 7.5590553,7.5590553 0 0 0 1.478516,-4.47657 7.5590553,7.5590553 0 0 0 -0.923829,-3.60547 c 9.508158,-8.879 19.289281,-18.656928 29.011719,-28.238277 -0.692351,-1.197299 -1.378446,-2.397514 -2.046875,-3.607422 z"
         style="fill:none;stroke:#008000;stroke-width:1"
         inkscape:connector-curvature="0" />
      <path
         id="path5137"
         d="m 15.566406,60.324219 -2.037109,3.527343 C 34.973258,76.232239 68.28238,81.467879 99.794922,79.589844 V 74.955078 C 68.681981,76.729762 35.550993,71.862325 15.566406,60.324219 Z m 143.437504,0 c -13.78127,7.956619 -33.82168,12.735488 -55.13477,14.361328 V 79.3125 c 21.72397,-1.72941 42.30152,-6.87666 57.16992,-15.460938 z"
         style="fill:none;stroke:#008000;stroke-width:1"
         inkscape:connector-curvature="0" />
      <path
         id="path5139"
         d="m 70.701172,11.693359 c 0,19.030123 7.159749,42.023482 18.361328,63.611329 1.735619,-0.01391 3.467922,-0.04887 5.199219,-0.103516 C 82.537092,53.328194 74.773438,29.981509 74.773438,11.693359 Z m 26.070312,68.0625 c -1.742867,0.07842 -3.489415,0.134843 -5.238281,0.169922 13.976867,25.370419 33.345397,48.213139 52.921877,59.515629 l 2.03711,-3.52735 C 128.79443,125.69626 110.4721,103.93113 96.771484,79.755859 Z"
         style="fill:none;stroke:#008000;stroke-width:1"
         inkscape:connector-curvature="0" />
      <path
         style="fill:none;stroke:#008000;stroke-width:1"
         d="m 70.701172,11.693359 c 0,19.030123 7.159749,42.023482 18.361328,63.611329 1.735619,-0.01391 3.467922,-0.04887 5.199219,-0.103516 C 82.537092,53.328194 74.773438,29.981509 74.773438,11.693359 Z m 26.070312,68.0625 c -1.742867,0.07842 -3.489415,0.134843 -5.238281,0.169922 13.976867,25.370419 33.345397,48.213139 52.921877,59.515629 l 2.03711,-3.52735 C 128.79443,125.69626 110.4721,103.93113 96.771484,79.755859 Z"
         id="path5428"
         inkscape:connector-curvature="0" />
    </g>
    <g
       id="g1994"
       transform="matrix(0.26458333,0,0,0.26458333,16.533634,88.902935)">
      <path
         id="path1965"
         style="fill:none;stroke:#ff0000;stroke-width:1"
         d="M 174.56878,87.284391 130.92659,162.87489 H 43.642196 L 0,87.284391 43.642196,11.693891 h 87.284394 z"
         inkscape:connector-curvature="0" />
      <path
         id="path1967"
         style="fill:none;stroke:#008000;stroke-width:1"
         d="m 159.00307,114.245 c -34.64102,-19.999997 -108.796337,-19.999997 -143.437354,0 l -2.036635,-3.52755 c 37.239092,-21.500004 110.271529,-21.500004 147.510619,0"
         inkscape:connector-curvature="0" />
      <path
         id="path1969"
         style="fill:none;stroke:#008000;stroke-width:1"
         d="m 144.45567,139.44184 c -34.64102,-20 -79.701539,-20 -114.342555,0 l -2.036636,-3.52756 c 37.239092,-21.5 81.176731,-21.5 118.415821,0"
         inkscape:connector-curvature="0" />
      <path
         id="path1971"
         style="fill:none;stroke:#008000;stroke-width:1"
         d="m 99.795154,162.87489 c 0,-40 -25.021526,-40 -25.021526,0 h -4.073271 c 0,-43 33.168073,-43 33.168073,0"
         inkscape:connector-curvature="0" />
      <path
         id="path1973"
         style="fill:none;stroke:#008000;stroke-width:1"
         d="m 15.565716,60.323779 c 34.641017,20 84.229438,-8.629888 84.229438,-48.629888 h 4.073276 c 0,43 -53.100257,73.657445 -90.339349,52.157445"
         inkscape:connector-curvature="0" />
      <path
         id="path1975"
         style="fill:none;stroke:#008000;stroke-width:1"
         d="m 30.113115,35.126946 c 34.641016,20 40.587242,16.566945 40.587242,-23.433055 h 4.073271 c 0,43 -9.458057,48.460612 -46.697149,26.960612"
         inkscape:connector-curvature="0" />
      <path
         id="path1977"
         style="fill:none;stroke:#008000;stroke-width:1"
         d="m 146.4923,38.654503 c -34.64101,20 -22.13025,41.669276 12.51077,21.669276 l 2.03663,3.527557 c -37.23909,21.5 -53.82313,-7.22439 -16.58403,-28.72439"
         inkscape:connector-curvature="0" />
    </g>
  </g>
</svg>
